<?xml version="1.0" encoding="UTF-8"?>
<svg xmlns="http://www.w3.org/2000/svg" version="1.1" xmlns:xlink="http://www.w3.org/1999/xlink" viewBox="0 0 1920 1080">
  <defs>
    <style>
      .cls-1 {
        fill: #ff74b1;
      }
    </style>
  </defs>
  <!-- Generator: Adobe Illustrator 28.7.6, SVG Export Plug-In . SVG Version: 1.2.0 Build 188)  -->
  <g>
    <g id="Layer_1">
      <g>
        <image width="800" height="800" transform="translate(477.5 62.2) scale(1.2)" xlink:href="../../../Downloads/s-l1200.jpg"/>
        <g>
          <g>
            <g>
              <path class="cls-1" d="M946.8,443.3c-2.1-4-4.7-8.3-3.7-12.6.7-2.8,2.9-5.1,5.6-6,2.7-.9,5.9-.2,8.1,1.6,2.2,1.8,3.5,4.6,4.6,7.2,2.1,4.7,4.1,9.5,6.2,14.2,1.8,4.2,3.7,8.6,3.6,13.3,0,3.9-1.6,7.6-3.1,11.2-2.9,7.1-5.9,14.3-7.9,21.7-2,7.5-3,15.3-1.8,22.9,0,.6.1,1.3-.3,1.7-.4.4-1,.3-1.5,0-1.9-.8-2.7-3.1-3-5.2-.3-2.1-.4-4.3-1.8-5.9-1-1.2-2.7-2-3-3.5-.4-1.8,1.3-3.2,2.5-4.6,3.6-4.1,3.9-10,3.6-15.4-.2-5.4-.7-11.1,1.9-15.9,1.1-2.1,2.8-4.1,2.6-6.4-.2-1.7-1.3-3.1-2.3-4.3-4.1-5-6.3-8.9-10.4-13.9"/>
              <path class="cls-1" d="M958.7,427c-3.1-1.3-6.3-2.5-9.7-2.6s-7,1.5-8.5,4.5c-1.8,3.6,0,8.2,3.2,10.6,3.2,2.5,7.3,3.3,11.2,3.9,6.3.9,12.6,1.3,18.9,1.2-6.5,3.2-11.8,8.6-14.9,15.1-1,2.1-1.8,4.3-3,6.3s-3,3.7-5.3,4.3c-1.8.4-4.1.3-5.1,1.9-1,1.8.7,3.8.9,5.9.2,2.1-1.1,4-1.9,6-.7,2-.5,4.8,1.6,5.4,3.9-8.6,10.3-15.8,17.3-22.1,7-6.3,14.8-11.7,22.1-17.7,2.1-1.7,4.3-4.1,3.6-6.7-.5-2-2.6-3.1-4.5-4-9.1-4.2-18.2-8.4-27.2-12.5"/>
              <g>
                <path class="cls-1" d="M946.7,488.8c1.5,1.7,2.5,4,2.9,6.5-2.3-1.8-4.6-3.7-6.9-5.5-.6-.5-1.2-1-1.5-1.8-.2-.8,0-1.7.2-2.5s.7-1.6,1-2.4c.8-2.2.9-4.6.2-6.6-.3-.9-.7-1.7-.7-2.7.1-1.1.9-2.1,1.7-2.7s1.8-.8,2.8-1c.4,0,.8-.1,1.1.1.3.3.3.9.2,1.4-.5,3.6-1.2,7.2-2.1,10.7-.3,1.2-.7,2.5-.6,3.7s.7,2.4,1.7,2.6"/>
                <polygon class="cls-1" points="943.1 471.6 943.9 472.4 936.1 483.2 935.2 482.4 943.1 471.6"/>
                <path class="cls-1" d="M941.3,474.3c-.3.3-.5.8-.3,1.2s.7.4,1,.1.5-.8.3-1.2-.7-.4-1-.1Z"/>
              </g>
              <g>
                <path class="cls-1" d="M959.2,517.1c2.2.5,4.4,1.8,6.2,3.6-2.9-.2-5.9-.3-8.8-.5-.8,0-1.6-.1-2.3-.6-.6-.5-1-1.3-1.3-2.1s-.4-1.7-.6-2.5c-.6-2.2-2-4.3-3.7-5.5-.8-.5-1.6-1-2.1-1.8-.6-1-.5-2.2-.2-3.2s1-1.7,1.7-2.4c.3-.3.6-.6.9-.5.4,0,.7.6,1,1,1.7,3.2,3.2,6.5,4.5,10,.5,1.2.9,2.4,1.7,3.4.8,1,2,1.6,2.9,1.2"/>
                <polygon class="cls-1" points="946.3 505.3 947.4 505.4 947.3 518.7 946.2 518.6 946.3 505.3"/>
                <path class="cls-1" d="M946.4,508.5c-.1.4.1.9.5,1.1s.8,0,.9-.5-.1-.9-.5-1.1-.8,0-.9.5Z"/>
              </g>
            </g>
            <polygon class="cls-1" points="980 384 948 381.9 942.9 447.3 976.2 430.4 980 384"/>
            <polygon class="cls-1" points="943 447.7 913.3 427.4 915.5 389.5 959.2 376.6 943 447.7"/>
            <polygon class="cls-1" points="964.3 385.6 915.5 388.8 932.2 371.2 932.9 361.4 935 360.5 960.5 377.5 964.3 385.6"/>
            <polygon class="cls-1" points="972.9 369.9 948.1 381.6 980.1 383.7 980.1 383.7 972.9 369.9"/>
            <path class="cls-1" d="M946.3,391.2"/>
            <line class="cls-1" x1="979.8" y1="387" x2="947.8" y2="384.9"/>
            <g>
              <polygon class="cls-1" points="978.7 393 945.4 409.5 943 446.9 976.2 430.4 978.7 393"/>
              <polygon class="cls-1" points="945.4 409.6 915.5 388.8 912.6 426.2 943 447 945.4 409.6"/>
              <path class="cls-1" d="M949.4,372.3"/>
            </g>
            <path class="cls-1" d="M964.1,382.1"/>
            <path class="cls-1" d="M960.4,376"/>
            <path class="cls-1" d="M978.7,392.5"/>
            <path class="cls-1" d="M964.1,382.1"/>
            <polygon class="cls-1" points="972.8 370.2 948 381.9 980 384 980 384 972.8 370.2"/>
            <path class="cls-1" d="M948.3,372.2"/>
            <line class="cls-1" x1="978.7" y1="393" x2="979.8" y2="387"/>
            <polyline class="cls-1" points="915.5 388.8 932.2 371.2 932.9 361.4 956.6 377"/>
            <polyline class="cls-1" points="932.1 371.2 948 381.9 945.5 409.1 979.8 387 980 384"/>
            <polyline class="cls-1" points="932.7 361.4 935 360.5 958.7 376"/>
            <text/>
            <path class="cls-1" d="M945.4,409.6"/>
            <g>
              <path class="cls-1" d="M960.2,414.3l-.4.2-.2-.5h.2c.2,0,.4.2.5.3Z"/>
              <path class="cls-1" d="M960.2,414.3l-.4.2-.2-.5h.2c.2,0,.4.2.5.3Z"/>
              <path class="cls-1" d="M979.1,404.4l.4,1-1.6.7c0,0,0,.1,0,.2.3,1.7-.1,3.7-1.3,5.3-1.1,1.7-3,3.1-5.1,3.6-2.1.5-4.4.1-5.6-1.1-.5-.5-.8-1.1-.9-1.8l-4.8,2c-.1-.2-.3-.3-.5-.4l5.4-2.3s0,0,0-.1c.2-.7.8-1.3,1.5-1.9,2.5-2.2,5.8-3.9,9.1-4.7v.2c.3-.5,1.1-.5,1.6-.2,0,0,.1,0,.2.1l1.6-.7Z"/>
              <path class="cls-1" d="M959.7,414.5l.4-.2c.5.5.7,1.2.7,1.8,0,1.8-1.3,3.7-3.2,4.8-1.8,1.1-4.2,1.5-6.2,1.2-2-.3-3.6-1.4-4.7-2.8,0,0,0,0-.1-.1l-1.7.7-.4-1,1.7-.7c0,0,0-.1,0-.2,0-.5.7-1,1.3-1h-.2c2.9-2,6.3-3.2,9.7-3.4.8,0,1.7,0,2.4.3,0,0,0,0,.1,0h-.2c0,0,.2.6.2.6Z"/>
            </g>
            <path class="cls-1" d="M959.3,426.1c.4-1.5.9-3.1,1.3-4.6.3-1,.7-2.1,1.6-2.3.4,0,.9,0,1.3-.1.5-.2.8-.7,1.3-1,.6-.3,1.3-.2,1.9,0,1.9.6,3.8,1.5,5.4,2.9-.4.9-1.4,1.2-2.4,1.2s-1.9-.3-2.8-.3c-1.2,0-2.4.4-3.3,1.3-.7.6-1.1,1.5-1.8,2.1s-1.6,1-2.5.6"/>
            <path class="cls-1" d="M959.6,425.9c.4.3.9.1,1.3-.1s.7-.6,1.1-.9c.6-.4,1.3-.4,2-.5,1.1-.2,2.2-.6,3.2-1.2.6-.4,1.3-.9,2-1,.5-.1,1.1,0,1.6-.2s1.1-.3,1.3-.8c.2,2-.7,3.8-1.9,5-1.3,1.2-2.9,1.9-4.6,2.3-1.4.3-3,.5-4.3-.4-.8-.5-1.4-1.4-1.9-2.2"/>
            <line class="cls-1" x1="950.8" y1="416.1" x2="949.9" y2="420.3"/>
            <line class="cls-1" x1="952.8" y1="415.5" x2="951.9" y2="419.7"/>
            <line class="cls-1" x1="954.8" y1="414.8" x2="953.8" y2="419"/>
            <path class="cls-1" d="M961.8,420.7c0-.3.3-.5.5-.6s.5,0,.8,0,.6,0,.8,0c.4-.1.7-.5.9-.8s.7-.5,1.1-.5"/>
            <path class="cls-1" d="M964.1,425.4c1.6,0,3.2-.6,4.1-1.8"/>
            <line class="cls-1" x1="968.8" y1="409.1" x2="967.9" y2="413.3"/>
            <line class="cls-1" x1="970.9" y1="408" x2="969.9" y2="412.2"/>
            <line class="cls-1" x1="973.1" y1="406.7" x2="972.1" y2="410.9"/>
            <path class="cls-1" d="M993.1,374.3c-.2,1.2-.6,2.2-1,3.3s-.7,2.2-.6,3.5c0,1.3.6,2.6,1.4,3.3s1.8.8,2.5.1,1.2-2,1.1-3.3c0-1.3-.7-2.4-1.2-3.4-.7-1.2-1.4-2.3-2.1-3.4"/>
            <path class="cls-1" d="M997,371.9l-3.9,3.5-5.7-7.6-15,14.9-2.8-.3,15.8-18.1c1-1.3,2.6-1.5,3.5-.4l8,7.8Z"/>
            <path class="cls-1" d="M993.2,377.9c-.7.8-1.1,2-1,3.1"/>
            <ellipse class="cls-1" cx="993.2" cy="383.1" rx=".5" ry=".9" transform="translate(-45.2 617.6) rotate(-33.8)"/>
            <path class="cls-1" d="M963.5,429c-2.2-1-4.5-2.1-6.7-3.1"/>
          </g>
          <path class="cls-1" d="M945.8,440.7c2.1.7,6.4,2.7,8.6,3,6.3.9,12.6,1.3,18.9,1.2-6.5,3.2-11.8,8.6-14.9,15.1-1,2.1-1.8,4.3-3,6.3s-3,3.7-5.3,4.3c-1.8.4-4.1.3-5.1,1.9-1,1.8.7,3.8.9,5.9.2,2.1-1.1,4-1.9,6s-.5,4.8,1.6,5.4c3.9-8.6,10.3-15.8,17.3-22.1,7-6.3,14.8-11.7,22.1-17.7,2.1-1.7,4.3-4.1,3.6-6.7-.5-2-2.6-3.1-4.5-4-6.8-3.1-13.7-6.3-20.5-9.4"/>
          <polygon class="cls-1" points="978 393.3 947.5 408.5 945.8 443.9 974.8 428.9 978 393.3"/>
          <polygon class="cls-1" points="943.2 446 913.8 425.7 916.7 389.4 945.2 408.9 943.2 446"/>
          <polygon class="cls-1" points="935.9 362.7 934 363.5 933.4 372.3 947.7 381.4 957.4 377 935.9 362.7"/>
          <polygon class="cls-1" points="945.3 407.6 917.3 388.7 932.7 373.2 947.4 382.4 945.3 407.6"/>
          <polygon class="cls-1" points="978.5 387.2 947.6 407.4 949.4 382.7 978.9 384.7 978.5 387.2"/>
          <polygon class="cls-1" points="978.5 391.8 968.4 397.1 954.5 404 978.7 388 978.5 391.8"/>
          <g>
            <g>
              <path class="cls-1" d="M960.8,411.9l-.4.2-.2-.5h.2c.2,0,.4.2.5.3Z"/>
              <path class="cls-1" d="M960.8,411.9l-.4.2-.2-.5h.2c.2,0,.4.2.5.3Z"/>
              <path class="cls-1" d="M979.4,402.1l.4,1-1.6.7c0,0,0,.1,0,.2.3,1.7-.1,3.6-1.2,5.3-1.1,1.6-3,3-5.1,3.5-2.1.5-4.3.1-5.6-1.1-.5-.5-.8-1.1-.9-1.7l-4.7,2c-.1-.2-.3-.3-.5-.4l5.3-2.2s0,0,0-.1c.2-.7.8-1.3,1.5-1.9,2.5-2.2,5.7-3.8,9-4.6v.2c.3-.4,1.1-.5,1.5-.2,0,0,.1,0,.2.1l1.6-.7Z"/>
              <path class="cls-1" d="M960.3,412.1l.4-.2c.4.5.6,1.2.6,1.8,0,1.8-1.3,3.6-3.1,4.7-1.8,1.1-4.1,1.5-6.1,1.2-2-.3-3.6-1.4-4.6-2.8,0,0,0,0-.1-.1l-1.7.7-.4-1,1.7-.7c0,0,0-.1,0-.2,0-.5.7-1,1.2-1h-.1c2.9-2,6.3-3.1,9.6-3.4.8,0,1.7,0,2.3.3,0,0,0,0,.1,0h-.2c0,0,.2.6.2.6Z"/>
            </g>
            <line class="cls-1" x1="952.7" y1="410.8" x2="951.2" y2="417.5"/>
            <line class="cls-1" x1="954.7" y1="410" x2="953.2" y2="416.9"/>
            <line class="cls-1" x1="956.6" y1="409.4" x2="955.1" y2="416.2"/>
            <line class="cls-1" x1="970.8" y1="403.1" x2="969.2" y2="410.5"/>
            <line class="cls-1" x1="972.8" y1="402.2" x2="971.2" y2="409.4"/>
            <line class="cls-1" x1="974.9" y1="401.4" x2="973.4" y2="408.2"/>
          </g>
          <g>
            <path class="cls-1" d="M946.9,488.3c1.5,1.7,2.5,4,2.9,6.5-2.3-1.8-4.6-3.7-6.8-5.5-.6-.5-1.2-1-1.5-1.8-.2-.8,0-1.6.2-2.5s.7-1.6,1-2.4c.8-2.2.9-4.6.2-6.6-.3-.9-.7-1.7-.6-2.7.1-1.1.9-2.1,1.7-2.7s1.8-.8,2.8-1c.4,0,.8-.1,1.1.1.3.3.3.9.2,1.4-.5,3.6-1.2,7.2-2.1,10.7-.3,1.2-.7,2.5-.6,3.7s.7,2.4,1.7,2.6"/>
            <polygon class="cls-1" points="943.2 471.2 944.1 472 936.3 482.7 935.4 481.9 943.2 471.2"/>
            <path class="cls-1" d="M941.5,473.9c-.3.3-.5.8-.3,1.2s.7.4,1,.1.5-.8.3-1.2-.7-.4-1-.1Z"/>
          </g>
          <g>
            <path class="cls-1" d="M959.3,516.5c2.2.5,4.4,1.8,6.1,3.6-2.9-.2-5.8-.3-8.7-.5-.8,0-1.6-.1-2.2-.6-.6-.5-1-1.3-1.3-2.1s-.4-1.7-.6-2.5c-.6-2.2-2-4.3-3.7-5.5-.8-.5-1.6-1-2.1-1.8-.6-1-.5-2.2-.2-3.2s1-1.7,1.7-2.4c.3-.3.6-.6.9-.5.4,0,.7.6,1,1,1.7,3.2,3.2,6.5,4.5,9.9.5,1.2.9,2.4,1.7,3.4s1.9,1.6,2.9,1.2"/>
            <polygon class="cls-1" points="946.4 504.8 947.6 504.9 947.5 518.2 946.3 518 946.4 504.8"/>
            <path class="cls-1" d="M946.6,508c-.1.4.1.9.5,1.1s.8,0,.9-.5-.1-.9-.5-1.1-.8,0-.9.5Z"/>
          </g>
          <path class="cls-1" d="M960.2,422.4c.4-1.5.9-3.1,1.3-4.6.3-1,.7-2,1.6-2.2.4,0,.9,0,1.3-.1.5-.2.8-.7,1.3-.9.6-.3,1.3-.2,1.9,0,1.9.6,3.8,1.5,5.4,2.8-.4.9-1.4,1.2-2.4,1.2s-1.9-.3-2.8-.3c-1.2,0-2.4.4-3.3,1.3-.7.6-1.1,1.5-1.8,2.1s-1.6,1-2.5.6"/>
          <path class="cls-1" d="M960.4,422.2c.4.2.9.1,1.3-.1s.7-.6,1.1-.9c.6-.4,1.3-.4,2-.5,1.1-.2,2.2-.6,3.2-1.2.6-.4,1.3-.9,2-1,.5-.1,1.1,0,1.6-.2s1.1-.3,1.3-.8c.2,2-.7,3.8-1.9,5s-2.9,1.9-4.6,2.3c-1.4.3-3,.5-4.3-.4-.8-.5-1.4-1.4-1.9-2.2"/>
          <path class="cls-1" d="M962.6,417c0-.3.3-.5.5-.6s.5,0,.8,0,.6,0,.8,0c.4-.1.6-.5.9-.8s.7-.5,1.1-.5"/>
          <path class="cls-1" d="M965,421.6c1.6,0,3.1-.6,4.1-1.8"/>
          <path class="cls-1" d="M993,374.3c-.2,1.2-.6,2.2-1,3.2-.4,1.1-.7,2.2-.6,3.4,0,1.3.6,2.6,1.4,3.3s1.8.8,2.5.1,1.2-2,1.1-3.3c0-1.3-.7-2.4-1.2-3.4-.7-1.2-1.4-2.3-2.1-3.4"/>
          <path class="cls-1" d="M996.9,371.8l-3.9,3.5-5.7-7.6-14.9,14.9-2.8-.3,15.8-18c1-1.3,2.6-1.5,3.5-.4l8,7.8Z"/>
          <path class="cls-1" d="M993.1,377.8c-.7.8-1.1,2-1,3.1"/>
          <ellipse class="cls-1" cx="993.1" cy="383.1" rx=".5" ry=".9" transform="translate(-45.2 617.5) rotate(-33.8)"/>
        </g>
      </g>
    </g>
  </g>
</svg>