<?xml version="1.0" encoding="UTF-8"?>
<svg xmlns="http://www.w3.org/2000/svg" version="1.1" viewBox="0 0 1920 1080">
  <defs>
    <style>
      .cls-1, .cls-2, .cls-3 {
        font-family: Arimo-BoldItalic, Arimo;
        font-size: 25px;
        font-style: italic;
        font-weight: 700;
      }

      .cls-1, .cls-4 {
        fill: #ff74b1;
      }

      .cls-5 {
        fill: #fff;
      }

      .cls-6, .cls-3 {
        fill: #65dbff;
      }

      .cls-7 {
        stroke-width: 1px;
      }

      .cls-7, .cls-8, .cls-9, .cls-10, .cls-11, .cls-12 {
        fill: none;
        stroke: #65dbff;
        stroke-miterlimit: 10;
      }

      .cls-2, .cls-13 {
        fill: #ff0;
      }

      .cls-8 {
        stroke-width: 1.1px;
      }

      .cls-9 {
        stroke-width: 1.1px;
      }

      .cls-10 {
        stroke-width: 1px;
      }

      .cls-11 {
        stroke-width: 1px;
      }

      .cls-12 {
        stroke-width: 1px;
      }
    </style>
  </defs>
  <!-- Generator: Adobe Illustrator 28.7.6, SVG Export Plug-In . SVG Version: 1.2.0 Build 188)  -->
  <g>
    <g id="Layer_1">
      <g>
        <path class="cls-5" d="M128.6,959V113.5h1691.2c0,281.8,0,563.7,0,845.6H128.6ZM1168.4,850.5c25,0,48.3.2,71.7,0,66.6-.7,133.2-2.2,199.8-2,38.4,0,76.9,2.6,115.3,4.2,9.3.4,12.3-3.5,12-12.5-.7-18.8-.7-37.6-.7-56.3,0-68.1,0-136.1,0-203.6,43.6-28.3,88.6-57.6,133.8-86.9-1.5-3.9-2.3-6.6-3.6-9-41.9-71.6-83.8-143.3-126-214.8-12.3-20.8-30-36.1-51.5-46.6-23.1-11.3-46.7-21.8-67.8-31.6-56.4,24.8-110,25-164.6-.3-7.7,3.3-16.9,6.9-25.7,11.1-33,15.6-68.3,27.9-90.2,60.1-15.5,22.8-31.3,45.6-45.1,69.4-28.4,49.2-55.4,99.2-83.5,148.5-5.2,9-4.1,14.1,4.3,19.4,38.2,24.6,76.1,49.7,114.6,73.8,7.9,4.9,10.8,9.5,10.5,18.8-1.5,45.1-2.5,90.1-3.1,135.2-.5,40.3-.1,80.6-.1,123.2ZM381.3,578.8c0,5.5.1,12.5,0,19.5-1.3,74.7-3.2,149.3-3.7,224-.2,29.4,1.2,29.6,31.6,29.4,73.2-.7,146.4-2.2,219.7-2.3,43.2,0,86.3,2.2,129.5,2.9,18.6.3,18.7-.4,18.4-19-1.1-82.7-2.1-165.3-3.5-248-.1-8.1,1.5-12.5,9.6-15.8,15.6-6.4,31.4-13.1,45.5-22.1,24-15.4,47-32.5,70-49.4,5.9-4.4,10.4-9.8,4.9-19.1-41.4-69.8-81.3-140.5-123.9-209.5-10.4-16.8-27.7-30.3-44.2-42.1-15.1-10.7-33.2-17.3-50.3-25.1-14.3-6.5-29-15.5-44.3-1.9-.3.3-.9.2-1.4.3-40.6,12.8-81.8,13.1-121.3-1.2-16.7-6.1-29.5-5.3-44.2,1.5-31.9,14.8-66,26.5-88.3,55.8-17,22.4-33.1,45.7-47.4,69.9-28.2,47.6-54.7,96.3-82.2,144.3-11.5,20.1-12.5,20.7,6.7,33.2,38.8,25.3,78.4,49.5,118.7,74.8Z"/>
        <path d="M1168.4,850.5c0-42.5-.4-82.9.1-123.2.5-45.1,1.6-90.2,3.1-135.2.3-9.3-2.6-13.8-10.5-18.8-38.5-24.1-76.4-49.3-114.6-73.8-8.4-5.4-9.4-10.4-4.3-19.4,28.2-49.3,55.1-99.4,83.5-148.5,13.8-23.9,29.6-46.6,45.1-69.4,21.8-32.1,57.2-44.5,90.2-60.1,8.9-4.2,18-7.8,25.7-11.1,54.5,25.4,108.2,25.1,164.6.3,21.1,9.8,44.7,20.3,67.8,31.6,21.5,10.5,39.2,25.9,51.5,46.6,42.1,71.5,84,143.2,126,214.8,1.4,2.4,2.1,5.1,3.6,9-45.2,29.4-90.2,58.6-133.8,86.9,0,67.5,0,135.6,0,203.6,0,18.8,0,37.6.7,56.3.3,9-2.7,12.9-12,12.5-38.4-1.6-76.9-4.1-115.3-4.2-66.6-.1-133.2,1.4-199.8,2-23.4.2-46.8,0-71.7,0Z"/>
        <path d="M381.3,578.8c-40.3-25.3-79.8-49.5-118.7-74.8-19.2-12.5-18.2-13.2-6.7-33.2,27.5-48,54-96.7,82.2-144.3,14.3-24.2,30.4-47.5,47.4-69.9,22.3-29.3,56.4-41,88.3-55.8,14.7-6.8,27.5-7.6,44.2-1.5,39.5,14.4,80.7,14.1,121.3,1.2.4-.1,1.1,0,1.4-.3,15.4-13.7,30-4.6,44.3,1.9,17.1,7.8,35.2,14.4,50.3,25.1,16.5,11.7,33.9,25.2,44.2,42.1,42.6,69,82.5,139.7,123.9,209.5,5.5,9.3,1,14.7-4.9,19.1-23,17-46,34-70,49.4-14.1,9-29.9,15.7-45.5,22.1-8.1,3.3-9.8,7.8-9.6,15.8,1.4,82.7,2.4,165.3,3.5,248,.2,18.7.2,19.3-18.4,19-43.2-.7-86.4-3-129.5-2.9-73.2,0-146.4,1.6-219.7,2.3-30.5.3-31.8,0-31.6-29.4.5-74.7,2.4-149.3,3.7-224,.1-7,0-14,0-19.5Z"/>
      </g>
      <g>
        <text class="cls-1" transform="translate(605.3 364.2)"><tspan x="0" y="0">spoiled</tspan></text>
        <text class="cls-2" transform="translate(605.7 372.3)"><tspan x="0" y="0">spoiled</tspan></text>
        <text class="cls-3" transform="translate(605.7 382.7)"><tspan x="0" y="0">spoiled</tspan></text>
      </g>
      <g>
        <g>
          <g>
            <path class="cls-13" d="M1350.1,471.1c-4.5-10.2-10.3-21.3-7-31.9,2.1-6.8,8-12.2,14.9-13.9,6.9-1.7,14.6.4,19.8,5.2,5.3,4.9,7.9,11.9,10.3,18.6,4.3,12.1,8.7,24.2,13,36.3,3.9,10.8,7.8,22,6.8,33.5-.9,9.7-5.2,18.6-9.5,27.3-8.4,17.2-17,34.4-23.1,52.6-6.1,18.2-9.8,37.4-8.3,56.5.1,1.5.2,3.2-1,4.1-1.1.9-2.6.6-3.9,0-4.6-2.4-6.1-8.2-6.5-13.4-.4-5.2-.3-10.8-3.4-15-2.3-3.1-6.3-5.3-6.9-9.2-.6-4.5,3.7-7.8,6.9-11,9.5-9.5,11.2-24.2,11.6-37.6.4-13.4.2-27.7,7.3-39.2,3.1-5,7.6-9.7,7.5-15.5-.1-4.1-2.6-7.8-5-11.2-9.3-13.2-14.2-23.1-23.5-36.3"/>
            <path class="cls-13" d="M1382.2,432.8c-7.5-3.7-15.3-7.4-23.7-8-8.4-.6-17.6,2.5-21.7,9.8-5,8.6-1.1,20.2,6.3,26.9,7.4,6.7,17.5,9.5,27.2,11.6,15.4,3.3,31,5.4,46.8,6.2-16.5,6.9-30.7,19.5-39.5,35.1-2.8,5-5.2,10.4-8.6,15.1-3.4,4.7-8.1,8.7-13.8,9.8-4.6.8-10.3,0-12.8,4-2.8,4.2,1,9.6,1.2,14.7.2,5.2-3.5,9.7-5.6,14.5-2.2,4.8-1.9,11.9,3,13.6,11.1-20.7,28.2-37.6,46.7-52,18.5-14.4,38.6-26.7,57.7-40.3,5.4-3.9,11.4-9.4,10.1-16-1-5.1-6-8.2-10.6-10.6-21.8-11.9-43.7-23.7-65.5-35.6"/>
            <g>
              <path class="cls-13" d="M1342.3,584c3.5,4.5,5.6,10.4,6.1,16.7-5.4-4.9-10.7-9.9-16.1-14.8-1.4-1.3-2.9-2.7-3.3-4.8-.4-1.9,0-4.1.9-6.1.8-2,1.9-3.8,2.8-5.8,2.4-5.3,3-11.3,1.6-16.4-.6-2.2-1.6-4.4-1.2-6.9.4-2.7,2.5-5.1,4.8-6.4,2.3-1.3,4.7-1.7,7.1-2,.9-.1,2-.2,2.6.5.7.8.5,2.2.3,3.4-1.8,8.8-4.2,17.6-7,26.3-1,3-2,6.1-2.1,9.1,0,3,1.3,6.1,3.8,6.8"/>
              <polygon class="cls-13" points="1336.1 540.8 1338.1 542.9 1316.9 568.3 1314.9 566.2 1336.1 540.8"/>
              <path class="cls-13" d="M1331.3,547.2c-.9.7-1.3,2-.8,2.9s1.6,1.2,2.5.5c.9-.7,1.3-2,.8-2.9-.5-1-1.6-1.2-2.5-.5Z"/>
            </g>
            <g>
              <path class="cls-13" d="M1368.7,656.3c5.5,1.6,10.6,5.2,14.7,10-7.2-.9-14.5-1.8-21.7-2.7-1.9-.2-3.9-.5-5.5-1.9-1.5-1.3-2.3-3.4-2.8-5.5s-.7-4.2-1.1-6.3c-1.1-5.7-4.2-10.9-8.3-14.3-1.8-1.5-3.9-2.7-5-4.9-1.2-2.5-.9-5.6.2-8s2.9-4.1,4.6-5.8c.7-.7,1.5-1.3,2.4-1.1,1,.2,1.7,1.5,2.2,2.6,3.7,8.3,6.9,16.8,9.6,25.4,1,3,1.9,6.1,3.6,8.6,1.8,2.5,4.6,4.2,7.1,3.4"/>
              <polygon class="cls-13" points="1338.4 624.8 1341.3 625.4 1338.9 658.4 1336 657.8 1338.4 624.8"/>
              <path class="cls-13" d="M1338.3,632.8c-.4,1.1.1,2.4,1,2.9.9.5,2,0,2.3-1s-.1-2.4-1-2.9c-.9-.5-2,0-2.3,1Z"/>
            </g>
          </g>
          <polygon class="cls-13" points="1442.2 329.6 1363.2 319.1 1339.7 480.5 1425.2 444.1 1442.2 329.6"/>
          <polygon class="cls-13" points="1339.9 481.5 1269.5 426.3 1281.3 332.5 1391.9 307.8 1339.9 481.5"/>
          <polygon class="cls-13" points="1402.9 330.9 1281.3 330.9 1325.8 289.9 1329 265.9 1334.5 263.9 1394.9 310.2 1402.9 330.9"/>
          <polygon class="cls-13" points="1427 293.5 1363.4 318.5 1442.5 329 1442.5 329 1427 293.5"/>
          <path class="cls-13" d="M1357.5,341.9"/>
          <line class="cls-13" x1="1441.2" y1="337.1" x2="1362.2" y2="326.6"/>
          <g>
            <polygon class="cls-13" points="1437.5 351.7 1352.2 387.2 1339.9 479.6 1425.2 444.1 1437.5 351.7"/>
            <polygon class="cls-13" points="1352.2 387.4 1281.3 330.9 1268 423.1 1339.9 479.9 1352.2 387.4"/>
            <path class="cls-13" d="M1368.2,295.5"/>
          </g>
          <path class="cls-13" d="M1402.9,322.4"/>
          <path class="cls-13" d="M1394.9,306.6"/>
          <path class="cls-13" d="M1437.6,350.6"/>
          <path class="cls-13" d="M1402.9,322.4"/>
          <polygon class="cls-13" points="1426.7 294.1 1363.2 319.1 1442.2 329.6 1442.2 329.6 1426.7 294.1"/>
          <path class="cls-13" d="M1365.5,295.2"/>
          <line class="cls-13" x1="1437.5" y1="351.7" x2="1441.2" y2="337.1"/>
          <polyline class="cls-13" points="1281.3 330.9 1325.8 289.9 1329 265.9 1385.2 308.4"/>
          <polyline class="cls-13" points="1325.4 289.8 1363.2 319.1 1352.3 386.1 1441.2 337.1 1442.2 329.6"/>
          <polyline class="cls-13" points="1328.6 265.8 1334.5 263.9 1390.6 306.3"/>
          <text/>
          <path class="cls-13" d="M1352.2,387.4"/>
          <g>
            <path class="cls-13" d="M1388,401.4l-1.1.4-.5-1.3h.4c.5.2.9.5,1.2,1Z"/>
            <path class="cls-13" d="M1388,401.4l-1.1.4-.5-1.3h.4c.5.2.9.5,1.2,1Z"/>
            <path class="cls-13" d="M1436.5,379.9l.9,2.5-4.1,1.4c0,.1,0,.3,0,.4.4,4.3-.9,9-4,13-3.1,3.9-8,7.1-13.3,8-5.3,1-10.8-.4-13.8-3.6-1.1-1.3-1.9-2.8-1.9-4.5l-12.2,4.2c-.3-.4-.7-.8-1.2-1.1l13.7-4.8c0,0,0-.2.1-.3.7-1.7,2.3-3.2,4-4.4,6.7-5.1,15-8.7,23.4-10v.4c.9-1.1,2.8-1,3.9-.3.2.1.3.2.4.4l4.1-1.4Z"/>
            <path class="cls-13" d="M1386.9,401.8l1.1-.4c1,1.3,1.4,3,1.3,4.7-.3,4.4-3.9,8.9-8.6,11.4-4.8,2.5-10.6,3.1-15.5,1.9-4.9-1.2-8.8-4.1-11.2-7.7,0-.1-.2-.2-.2-.4l-4.3,1.5-.9-2.5,4.4-1.5c0-.2,0-.4,0-.6.3-1.2,1.9-2.5,3.3-2.3l-.4-.3c7.5-4.2,16.2-6.5,24.6-6.6,2.1,0,4.2.1,5.8,1,0,0,.2.1.3.2h-.4c0,.1.5,1.5.5,1.5Z"/>
          </g>
          <path class="cls-13" d="M1383.8,430.7c1.3-3.8,2.7-7.5,4.1-11.2.9-2.3,2.1-5,4.4-5.3,1.1-.2,2.2.2,3.3,0,1.3-.3,2.1-1.6,3.3-2.2,1.5-.7,3.2-.2,4.8.3,4.7,1.7,9.1,4.4,13,8-1.2,2.1-3.8,2.7-6.1,2.5s-4.6-1.1-7-1.3c-3.1-.3-6.1.7-8.5,2.7-1.7,1.5-3.1,3.4-4.8,4.9s-4.2,2.3-6.3,1.1"/>
          <path class="cls-13" d="M1384.5,430.2c1,.7,2.3.4,3.3-.1,1-.6,1.9-1.4,2.9-1.9,1.5-.8,3.3-.8,5.1-1,2.8-.3,5.6-1.1,8.1-2.5,1.7-.9,3.3-2,5.1-2.3,1.3-.2,2.6,0,4-.1,1.3,0,2.7-.5,3.4-1.7.1,4.9-2.3,9.3-5.6,12.1-3.4,2.8-7.6,4.1-11.8,4.9-3.5.6-7.5.8-10.6-1.6-1.8-1.4-3.1-3.6-4.3-5.7"/>
          <line class="cls-13" x1="1364.6" y1="404.4" x2="1361.5" y2="414.7"/>
          <line class="cls-13" x1="1369.6" y1="403.2" x2="1366.5" y2="413.6"/>
          <line class="cls-13" x1="1374.5" y1="401.8" x2="1371.5" y2="412.1"/>
          <path class="cls-13" d="M1390.9,417.7c.1-.7.8-1.2,1.4-1.3s1.4,0,2.1,0,1.4.2,2,0c1-.3,1.7-1.1,2.5-1.7.8-.7,1.8-1.2,2.7-1"/>
          <path class="cls-13" d="M1396,429.7c3.9.5,7.9-1,10.6-3.9"/>
          <line class="cls-13" x1="1410.3" y1="390" x2="1407.3" y2="400.3"/>
          <line class="cls-13" x1="1415.6" y1="387.6" x2="1412.5" y2="398"/>
          <line class="cls-13" x1="1421.3" y1="384.8" x2="1418.2" y2="395.1"/>
          <path class="cls-13" d="M1476.2,307.8c-.7,2.8-2,5.3-3,7.9s-2,5.4-2.1,8.5c0,3.3,1,6.6,2.8,8.5s4.3,2.2,6.3.7c2-1.5,3.3-4.7,3.3-7.9,0-3.2-1.3-6.1-2.5-8.6-1.5-3-3.1-5.9-4.8-8.7"/>
          <path class="cls-13" d="M1486.3,302.4l-10.2,8.1-12.9-19.8-39.6,34.6-7-1.1,42.3-42.2c2.7-3.1,6.6-3.3,8.8-.4l18.6,20.8Z"/>
          <path class="cls-13" d="M1475.9,316.6c-2,2-3.1,4.8-2.9,7.6"/>
          <ellipse class="cls-13" cx="1475" cy="329.7" rx="1.3" ry="2.3" transform="translate(32.8 781.6) rotate(-30)"/>
          <path class="cls-6" d="M1393.7,438.6c-5.4-2.9-10.8-5.9-16.2-8.8"/>
        </g>
        <path class="cls-6" d="M1348,464.5c5.2,2.2,15.4,7.7,20.8,8.9,15.4,3.3,31,5.4,46.8,6.2-16.5,6.9-30.7,19.5-39.5,35.1-2.8,5-5.2,10.4-8.6,15.1-3.4,4.7-8.1,8.7-13.8,9.8-4.6.8-10.3,0-12.8,4-2.8,4.2,1,9.6,1.2,14.7.2,5.2-3.5,9.7-5.6,14.5-2.2,4.8-1.9,11.9,3,13.6,11.1-20.7,28.2-37.6,46.7-52,18.5-14.4,38.6-26.7,57.7-40.3,5.4-3.9,11.4-9.4,10.1-16-1-5.1-6-8.2-10.6-10.6-16.4-8.9-32.9-17.9-49.3-26.8"/>
        <polygon class="cls-6" points="1435.8 352.4 1357.5 385 1347.3 472.6 1421.9 440.2 1435.8 352.4"/>
        <polygon class="cls-6" points="1340.5 477.4 1271 422.2 1284.2 332.7 1351.6 385.5 1340.5 477.4"/>
        <polygon class="cls-6" points="1336.4 269.5 1331.5 271.2 1328.6 292.9 1362.5 317.8 1387.3 308.5 1336.4 269.5"/>
        <polygon class="cls-6" points="1352.2 382.4 1285.9 330.9 1326.6 295 1361.5 320.3 1352.2 382.4"/>
        <polygon class="cls-6" points="1437.8 337.4 1358 382.4 1366.5 321.3 1439.3 331.2 1437.8 337.4"/>
        <polygon class="cls-6" points="1437.1 348.8 1411.3 360.1 1375.7 375.1 1438.4 339.2 1437.1 348.8"/>
        <g>
          <g>
            <path class="cls-13" d="M1389.9,395.6l-1.1.4-.5-1.3h.4c.5.2.9.5,1.2.9Z"/>
            <path class="cls-13" d="M1389.9,395.6l-1.1.4-.5-1.3h.4c.5.2.9.5,1.2.9Z"/>
            <path class="cls-13" d="M1437.7,374.4l.9,2.5-4,1.4c0,.1,0,.3,0,.4.4,4.3-.9,8.9-4,12.8-3.1,3.9-7.9,7-13.2,7.9-5.2,1-10.7-.3-13.7-3.6-1.1-1.2-1.9-2.8-1.8-4.4l-12.1,4.2c-.3-.4-.7-.8-1.2-1.1l13.6-4.7c0,0,0-.2.1-.3.7-1.7,2.3-3.1,3.9-4.4,6.6-5.1,14.8-8.6,23.1-9.9v.4c.8-1,2.8-1,3.8-.2.1.1.3.2.4.4l4.1-1.4Z"/>
            <path class="cls-13" d="M1388.7,396l1.1-.4c1,1.3,1.4,3,1.3,4.6-.3,4.4-3.8,8.8-8.5,11.3-4.7,2.5-10.5,3.1-15.3,1.9-4.8-1.2-8.7-4-11-7.6,0-.1-.2-.2-.2-.4l-4.3,1.5-.9-2.5,4.4-1.5c0-.2,0-.4,0-.5.3-1.2,1.8-2.5,3.2-2.2l-.4-.3c7.4-4.1,16-6.5,24.3-6.5,2.1,0,4.2.1,5.8,1,0,0,.2.1.3.2h-.4c0,.1.5,1.5.5,1.5Z"/>
          </g>
          <line class="cls-10" x1="1370" y1="391.7" x2="1365.2" y2="408"/>
          <line class="cls-7" x1="1375.2" y1="389.8" x2="1370.2" y2="406.9"/>
          <line class="cls-12" x1="1380" y1="388.8" x2="1375.2" y2="405.5"/>
          <line class="cls-9" x1="1416.3" y1="375.5" x2="1411" y2="393.6"/>
          <line class="cls-8" x1="1421.4" y1="373.5" x2="1416.2" y2="391.3"/>
          <line class="cls-11" x1="1426.7" y1="371.9" x2="1421.9" y2="388.5"/>
        </g>
        <g>
          <path class="cls-4" d="M1342.7,582.9c3.5,4.5,5.6,10.3,6.1,16.6-5.3-4.9-10.7-9.8-16-14.7-1.4-1.3-2.9-2.7-3.3-4.7-.4-1.9,0-4.1.9-6.1s1.9-3.8,2.8-5.7c2.4-5.3,3-11.3,1.6-16.4-.6-2.2-1.5-4.4-1.2-6.9.4-2.7,2.5-5.1,4.7-6.3,2.3-1.3,4.7-1.7,7.1-2,.9-.1,2-.2,2.6.5.7.8.5,2.2.3,3.4-1.8,8.8-4.1,17.6-7,26.2-1,3-2,6.1-2.1,9.1,0,3,1.3,6.1,3.8,6.8"/>
          <polygon class="cls-4" points="1336.5 539.8 1338.5 542 1317.4 567.3 1315.3 565.1 1336.5 539.8"/>
          <path class="cls-4" d="M1331.8,546.2c-.9.7-1.3,2-.8,2.9s1.6,1.2,2.5.5,1.3-2,.8-2.9c-.5-.9-1.6-1.2-2.5-.5Z"/>
        </g>
        <g>
          <path class="cls-4" d="M1369,654.9c5.4,1.6,10.6,5.1,14.6,10-7.2-.9-14.4-1.8-21.6-2.7-1.9-.2-3.9-.5-5.5-1.9-1.5-1.3-2.3-3.4-2.8-5.4s-.7-4.2-1.1-6.3c-1.1-5.7-4.2-10.9-8.2-14.2-1.8-1.5-3.8-2.7-4.9-4.9-1.2-2.5-.9-5.6.2-7.9,1.1-2.3,2.9-4.1,4.6-5.7.7-.6,1.5-1.3,2.4-1.1,1,.2,1.7,1.5,2.2,2.6,3.7,8.2,6.9,16.7,9.6,25.3,1,3,1.9,6.1,3.6,8.6,1.8,2.5,4.6,4.2,7,3.4"/>
          <polygon class="cls-4" points="1338.8 623.6 1341.7 624.1 1339.3 657 1336.4 656.4 1338.8 623.6"/>
          <path class="cls-4" d="M1338.7,631.5c-.4,1.1.1,2.4,1,2.9.9.5,2,0,2.3-1,.4-1.1-.1-2.4-1-2.9-.9-.5-2,0-2.3,1Z"/>
        </g>
        <path class="cls-4" d="M1386.6,421.5c1.3-3.8,2.7-7.5,4-11.2.9-2.3,2.1-5,4.3-5.3,1.1-.2,2.2.2,3.3,0,1.2-.3,2.1-1.6,3.3-2.1,1.5-.7,3.2-.2,4.8.3,4.7,1.7,9.1,4.4,13,7.9-1.2,2.1-3.8,2.7-6.1,2.5s-4.6-1.1-7-1.3c-3.1-.3-6.1.7-8.5,2.7-1.7,1.5-3.1,3.4-4.8,4.8s-4.2,2.2-6.3,1.1"/>
        <path class="cls-4" d="M1387.3,421.1c1,.7,2.3.4,3.3-.1,1-.6,1.9-1.4,2.9-1.9,1.5-.8,3.3-.8,5-1,2.8-.3,5.5-1.1,8.1-2.4,1.7-.9,3.3-2,5.1-2.3,1.3-.2,2.6,0,3.9-.1s2.7-.5,3.4-1.7c.1,4.9-2.3,9.3-5.6,12.1-3.4,2.8-7.6,4.1-11.8,4.9-3.5.6-7.5.8-10.5-1.6-1.8-1.4-3.1-3.6-4.3-5.7"/>
        <path class="cls-13" d="M1394.1,408.7c.3-1,1.4-1.1,2.3-1s2,.3,3,0,1.5-.8,2.1-1.4,1.6-1.5,2.7-1.3.9-.8.3-.9c-1.1-.2-2.1.2-2.9.9s-1.6,1.7-2.8,1.9-2.3-.3-3.5-.1-1.8.7-2,1.7.8.9.9.3h0Z"/>
        <path class="cls-13" d="M1398.7,421c4,.4,8.1-1.1,10.9-4s-.3-1.1-.7-.7c-2.6,2.8-6.4,4.1-10.2,3.7s-.6.9,0,1h0Z"/>
        <path class="cls-4" d="M1476.1,307.7c-.7,2.8-1.9,5.3-3,7.9-1.1,2.6-2,5.4-2.1,8.4,0,3.3,1,6.6,2.8,8.4,1.8,1.9,4.3,2.2,6.2.7s3.3-4.6,3.3-7.9c0-3.2-1.2-6-2.5-8.6-1.5-3-3.1-5.8-4.7-8.7"/>
        <path class="cls-4" d="M1486.2,302.3l-10.2,8.1-12.8-19.7-39.5,34.5-6.9-1.1,42.1-42c2.7-3.1,6.6-3.3,8.7-.4l18.5,20.7Z"/>
        <g>
          <path class="cls-4" d="M1475.8,316.5c-2,2-3.1,4.8-2.9,7.6"/>
          <path class="cls-13" d="M1475.5,316.2c-2,2-3.2,4.9-3,7.8s.8.5.8,0c-.2-2.7.9-5.4,2.8-7.3s-.2-.9-.6-.6h0Z"/>
        </g>
        <ellipse class="cls-13" cx="1474.8" cy="329.5" rx="1.3" ry="2.3" transform="translate(32.9 781.6) rotate(-30)"/>
      </g>
    </g>
  </g>
</svg>