<?xml version="1.0" encoding="UTF-8"?>
<svg xmlns="http://www.w3.org/2000/svg" version="1.1" viewBox="0 0 1920 1080">
  <defs>
    <style>
      .cls-1 {
        stroke-width: 3px;
      }

      .cls-1, .cls-2, .cls-3, .cls-4, .cls-5, .cls-6, .cls-7 {
        fill: none;
      }

      .cls-1, .cls-3, .cls-4, .cls-5, .cls-6, .cls-7 {
        stroke: #65dbff;
        stroke-miterlimit: 10;
      }

      .cls-8 {
        fill: #65dbff;
      }

      .cls-3 {
        stroke-width: 2.9px;
      }

      .cls-9 {
        fill: #ff74b1;
      }

      .cls-4 {
        stroke-width: 3px;
      }

      .cls-5 {
        stroke-width: 3.1px;
      }

      .cls-6 {
        stroke-width: 3px;
      }

      .cls-10 {
        fill: #ff0;
      }

      .cls-7 {
        stroke-width: 2.9px;
      }
    </style>
  </defs>
  <!-- Generator: Adobe Illustrator 28.7.6, SVG Export Plug-In . SVG Version: 1.2.0 Build 188)  -->
  <g>
    <g id="Layer_1">
      <g>
        <g>
          <g>
            <path class="cls-10" d="M887.1,556.1c-12.2-27.3-27.8-57-18.9-85.6,5.7-18.2,21.6-32.8,40.1-37.2,18.5-4.5,39.1,1.1,53.2,14.1,14.1,13,21.1,31.9,27.6,50,11.7,32.4,23.3,64.9,34.9,97.3,10.4,29,21,59.1,18.3,89.8-2.3,25.9-13.9,50-25.4,73.3-22.7,46.2-45.6,92.4-62,141.2-16.5,48.7-26.4,100.3-22.4,151.6.3,3.9.4,8.6-2.6,11-2.8,2.3-7.1,1.5-10.3-.1-12.4-6.4-16.4-22.1-17.5-36-1.1-13.9-.9-29-9.2-40.2-6.2-8.3-17-14.2-18.5-24.6-1.7-12,9.9-21,18.4-29.5,25.5-25.5,30.1-64.8,31.1-100.9,1-36.1.6-74.5,19.7-105.1,8.3-13.3,20.4-26,20-41.6-.3-11.1-7-20.9-13.4-30-25.1-35.3-38.1-62.1-63.2-97.4"/>
            <path class="cls-10" d="M973.4,453.2c-20.2-9.8-41.1-19.8-63.5-21.5-22.4-1.7-47.1,6.7-58.4,26.2-13.4,23.2-3,54.3,16.9,72.2,19.9,17.9,46.8,25.4,73,31,41.3,8.9,83.3,14.4,125.5,16.7-44.4,18.6-82.3,52.2-106,94.2-7.6,13.5-13.8,27.9-23,40.4-9.1,12.5-21.8,23.5-37.1,26.2-12.3,2.2-27.7.2-34.5,10.6-7.4,11.3,2.8,25.8,3.3,39.3.6,14-9.3,26-15.1,38.8s-5.2,31.9,8.1,36.4c29.7-55.6,75.6-100.9,125.3-139.7,49.7-38.7,103.6-71.6,154.9-108.3,14.6-10.4,30.7-25.3,27.1-42.8-2.7-13.6-16.2-21.9-28.4-28.5-58.6-31.8-117.2-63.7-175.8-95.5"/>
            <g>
              <path class="cls-10" d="M866.4,859c9.3,12.1,15.1,27.8,16.3,44.8-14.4-13.2-28.8-26.5-43.2-39.7-3.8-3.5-7.7-7.2-9-12.8-1.2-5.1.2-11,2.3-16.3,2.2-5.3,5.1-10.2,7.5-15.5,6.4-14.2,8-30.4,4.3-44.1-1.6-6-4.2-11.9-3.1-18.5,1.2-7.3,6.7-13.7,12.8-17.1s12.7-4.5,19.1-5.4c2.5-.3,5.3-.6,7,1.3,1.9,2.1,1.4,5.9.7,9.2-4.9,23.7-11.2,47.3-18.8,70.6-2.6,8.1-5.5,16.3-5.5,24.5,0,8.2,3.4,16.4,10.1,18.4"/>
              <polygon class="cls-10" points="849.6 743 855.1 748.8 798.1 817 792.7 811.2 849.6 743"/>
              <path class="cls-10" d="M836.9,760.3c-2.5,1.8-3.5,5.3-2.2,7.9,1.2,2.5,4.2,3.2,6.7,1.3s3.5-5.3,2.2-7.9-4.2-3.2-6.7-1.3Z"/>
            </g>
            <g>
              <path class="cls-10" d="M937.1,1053.1c14.6,4.4,28.5,13.8,39.4,26.9-19.4-2.4-38.8-4.8-58.2-7.1-5.1-.6-10.5-1.4-14.7-5.1-4-3.5-6.3-9.1-7.6-14.7-1.3-5.6-1.8-11.3-2.9-16.9-3.1-15.2-11.2-29.3-22.2-38.4-4.8-4-10.3-7.3-13.3-13.2-3.3-6.6-2.5-15,.4-21.3s7.7-11,12.4-15.5c1.8-1.8,4-3.6,6.4-3,2.8.6,4.6,4,5.9,7.1,9.8,22.1,18.5,45,25.8,68.3,2.6,8.1,5.1,16.5,9.8,23.2s12.3,11.3,18.9,9"/>
              <polygon class="cls-10" points="855.9 968.6 863.7 970.1 857.1 1058.8 849.3 1057.2 855.9 968.6"/>
              <path class="cls-10" d="M855.6,990.1c-.9,2.9.3,6.4,2.8,7.7s5.3,0,6.2-2.8c.9-2.9-.3-6.4-2.8-7.7s-5.3,0-6.2,2.8Z"/>
            </g>
          </g>
          <polygon class="cls-10" points="1134.4 176.2 922.3 148 859.3 581.2 1088.7 483.6 1134.4 176.2"/>
          <polygon class="cls-10" points="859.8 583.8 670.9 435.7 702.7 184 999.3 117.7 859.8 583.8"/>
          <polygon class="cls-10" points="1029.1 179.7 702.7 179.7 822.2 69.7 830.7 5.2 845.2 0 1007.6 124.2 1029.1 179.7"/>
          <polygon class="cls-10" points="1093.6 79.5 923 146.4 1135.1 174.7 1135.1 174.7 1093.6 79.5"/>
          <path class="cls-10" d="M907,209.3"/>
          <line class="cls-2" x1="1131.7" y1="196.4" x2="919.6" y2="168.2"/>
          <g>
            <polygon class="cls-10" points="1121.7 235.5 892.9 330.7 859.9 578.8 1088.7 483.6 1121.7 235.5"/>
            <polygon class="cls-10" points="892.8 331.4 702.7 179.7 666.8 427.2 859.8 579.5 892.8 331.4"/>
            <path class="cls-10" d="M935.7,84.8"/>
          </g>
          <path class="cls-10" d="M1029.1,156.9"/>
          <path class="cls-10" d="M1007.6,114.5"/>
          <path class="cls-10" d="M1122.1,232.6"/>
          <path class="cls-10" d="M1029.1,156.9"/>
          <polygon class="cls-10" points="1092.9 81 922.3 148 1134.4 176.2 1134.4 176.2 1092.9 81"/>
          <path class="cls-10" d="M928.7,83.9"/>
          <line class="cls-2" x1="1121.7" y1="235.5" x2="1131.7" y2="196.4"/>
          <polyline class="cls-10" points="702.7 179.7 822.2 69.7 830.7 5.2 981.5 119.4"/>
          <polyline class="cls-10" points="821 69.5 922.3 148 893.2 327.9 1131.7 196.4 1134.4 176.2"/>
          <polyline class="cls-10" points="829.6 5.1 845.2 0 995.9 113.7"/>
          <path class="cls-10" d="M892.8,331.4"/>
          <g>
            <path class="cls-10" d="M989,369l-3,1.1-1.2-3.6,1-.4c1.3.8,2.4,1.8,3.3,2.9h0Z"/>
            <path class="cls-10" d="M989,369l-3,1.1-1.2-3.6,1-.4c1.3.8,2.4,1.8,3.3,2.9h0Z"/>
            <path class="cls-10" d="M1119.1,311.4l2.3,6.7-10.9,3.8c0,.4,0,.8.1,1.1,1,11.7-2.5,24.2-10.8,34.8s-21.6,19-35.8,21.6c-14.2,2.6-29.1-1-37.1-9.8-3-3.4-5.1-7.6-5-12.1l-32.9,11.4c-.9-1.1-2-2.1-3.3-2.9l36.9-12.8c0-.3.2-.5.3-.8,1.9-4.6,6.2-8.5,10.6-11.9,17.8-13.8,40.2-23.3,62.9-26.9l-.3,1.2c2.6-2.9,7.9-2.8,10.6-.7.4.3.8.7,1.1,1l11.1-3.9h0Z"/>
            <path class="cls-10" d="M986,370l3-1.1c2.8,3.4,3.8,8.1,3.5,12.6-.8,11.9-10.3,23.9-23.1,30.6s-28.4,8.4-41.5,5.1c-13.1-3.2-23.6-11-30-20.7-.2-.3-.4-.6-.6-1l-11.7,4-2.3-6.7,11.9-4.1c0-.5,0-1,.2-1.5.8-3.4,5-6.7,8.8-6l-1-.7c20.1-11.2,43.5-17.5,66.1-17.7,5.6,0,11.3.3,15.7,2.8.2.1.5.3.7.5l-1,.4,1.2,3.6h0Z"/>
          </g>
          <path class="cls-10" d="M977.7,447.5c3.5-10.1,7.2-20.2,10.9-30.2,2.3-6.3,5.6-13.4,11.7-14.3,2.9-.5,6,.6,8.8-.2,3.4-.9,5.6-4.3,8.8-5.8,3.9-1.9,8.6-.6,12.9.9,12.6,4.5,24.6,11.9,35,21.4-3.2,5.7-10.1,7.3-16.4,6.7s-12.5-3-18.8-3.5c-8.3-.7-16.5,1.9-22.8,7.2-4.7,3.9-8.3,9.2-13,13-4.7,3.8-11.2,6-16.9,3"/>
          <path class="cls-10" d="M979.7,446.4c2.8,1.9,6.2,1.2,9-.3s5-3.8,7.7-5.2c4.1-2.1,9-2.1,13.6-2.6,7.6-.8,15-3.1,21.7-6.6,4.5-2.3,8.8-5.3,13.8-6.1,3.5-.6,7.1,0,10.6-.3s7.2-1.5,9.2-4.6c.4,13.1-6.1,25-15.2,32.5-9,7.5-20.3,11.1-31.7,13.1-9.5,1.7-20.1,2.1-28.4-4.4-5-3.9-8.4-9.7-11.6-15.4"/>
          <line class="cls-2" x1="926.1" y1="377" x2="918" y2="404.8"/>
          <line class="cls-2" x1="939.5" y1="373.9" x2="931.4" y2="401.7"/>
          <line class="cls-2" x1="952.7" y1="370" x2="944.6" y2="397.8"/>
          <path class="cls-10" d="M996.8,412.6c.4-1.8,2.1-3.1,3.9-3.5s3.7-.2,5.5,0,3.7.5,5.5,0c2.6-.7,4.5-2.8,6.6-4.6,2-1.8,4.7-3.3,7.3-2.6"/>
          <path class="cls-10" d="M1010.4,444.9c10.4,1.2,21.3-2.8,28.4-10.4"/>
          <line class="cls-2" x1="1048.9" y1="338.3" x2="1040.8" y2="366.1"/>
          <line class="cls-2" x1="1062.9" y1="332" x2="1054.8" y2="359.7"/>
          <line class="cls-2" x1="1078.2" y1="324.4" x2="1070.1" y2="352.2"/>
          <path class="cls-10" d="M1225.6,117.7c-1.9,7.6-5.2,14.3-8.1,21.2s-5.5,14.5-5.6,22.7c-.2,8.8,2.7,17.7,7.6,22.7,4.8,5,11.5,5.9,16.8,2s8.9-12.5,8.8-21.3c0-8.6-3.4-16.3-6.8-23.1-4-8.1-8.4-15.7-12.8-23.4"/>
          <path class="cls-10" d="M1252.8,103.2l-27.3,21.7-34.6-53.1-106.3,92.8-18.7-3,113.5-113.2c7.2-8.4,17.8-8.9,23.6-1l49.9,55.8h0Z"/>
          <path class="cls-10" d="M1224.9,141.4c-5.3,5.3-8.2,12.9-7.8,20.4"/>
          <ellipse class="cls-10" cx="1222.3" cy="176.4" rx="3.4" ry="6.2" transform="translate(75.6 634.8) rotate(-30)"/>
          <path class="cls-8" d="M1004.2,468.8c-14.5-7.9-29-15.8-43.5-23.6"/>
        </g>
        <path class="cls-8" d="M881.7,538.3c13.8,5.9,41.2,20.7,55.9,23.8,41.3,8.9,83.3,14.4,125.5,16.7-44.4,18.6-82.3,52.2-106,94.2-7.6,13.5-13.8,27.9-23,40.4-9.1,12.5-21.8,23.5-37.1,26.2-12.3,2.2-27.7.2-34.5,10.6-7.4,11.3,2.8,25.8,3.3,39.3.6,14-9.3,26-15.1,38.8s-5.2,31.9,8.1,36.4c29.7-55.6,75.6-100.9,125.3-139.7,49.7-38.7,103.6-71.6,154.9-108.3,14.6-10.4,30.7-25.3,27.1-42.8-2.7-13.6-16.2-21.9-28.4-28.5-44.1-24-88.2-47.9-132.3-71.9"/>
        <polygon class="cls-8" points="1117.1 237.4 907 324.8 879.8 560.1 1079.9 473.1 1117.1 237.4"/>
        <polygon class="cls-8" points="861.5 572.9 675 424.8 710.5 184.4 891.4 326.3 861.5 572.9"/>
        <polygon class="cls-8" points="850.3 14.8 837.3 19.5 829.5 77.7 920.5 144.6 987.1 119.5 850.3 14.8"/>
        <polygon class="cls-8" points="892.8 318 714.8 179.7 824.1 83.5 918 151.2 892.8 318"/>
        <polygon class="cls-8" points="1122.7 197.1 908.3 318 931.4 154 1126.7 180.5 1122.7 197.1"/>
        <polygon class="cls-8" points="1120.7 227.8 1051.4 258.2 956 298.5 1124.2 202.1 1120.7 227.8"/>
        <g>
          <g>
            <path class="cls-10" d="M993.9,353.3l-3,1-1.2-3.6,1-.4c1.3.8,2.3,1.8,3.2,2.9h0Z"/>
            <path class="cls-10" d="M993.9,353.3l-3,1-1.2-3.6,1-.4c1.3.8,2.3,1.8,3.2,2.9h0Z"/>
            <path class="cls-10" d="M1122.3,296.5l2.3,6.6-10.8,3.7c0,.4,0,.8.1,1.1,1,11.5-2.4,23.9-10.6,34.4-8.2,10.5-21.3,18.7-35.3,21.3-14.1,2.6-28.7-.9-36.7-9.6-3-3.3-5-7.5-4.9-11.9l-32.5,11.2c-.9-1.1-2-2.1-3.2-2.9l36.4-12.6c0-.3.2-.5.3-.8,1.9-4.5,6.1-8.4,10.5-11.7,17.6-13.6,39.7-23,62.1-26.6l-.3,1.2c2.6-2.8,7.8-2.8,10.5-.7.4.3.8.6,1.1,1l11-3.8h0Z"/>
            <path class="cls-10" d="M990.9,354.4l3-1c2.8,3.4,3.8,8,3.5,12.4-.8,11.7-10.2,23.6-22.8,30.2-12.7,6.6-28.1,8.2-41,5.1-12.9-3.2-23.3-10.8-29.6-20.5-.2-.3-.4-.6-.6-1l-11.5,4-2.3-6.6,11.7-4.1c0-.5,0-1,.2-1.5.8-3.3,4.9-6.6,8.7-6l-1-.7c19.8-11.1,43-17.3,65.3-17.5,5.5,0,11.2.3,15.5,2.7.2.1.5.3.7.4l-1,.4,1.2,3.6h0Z"/>
          </g>
          <line class="cls-3" x1="940.6" y1="342.9" x2="927.8" y2="386.8"/>
          <line class="cls-6" x1="954.6" y1="337.9" x2="941.2" y2="383.7"/>
          <line class="cls-4" x1="967.5" y1="335.2" x2="954.5" y2="379.8"/>
          <line class="cls-5" x1="1064.9" y1="299.4" x2="1050.7" y2="348.1"/>
          <line class="cls-1" x1="1078.6" y1="294.1" x2="1064.7" y2="341.8"/>
          <line class="cls-7" x1="1092.9" y1="289.8" x2="1079.9" y2="334.2"/>
        </g>
        <g>
          <path class="cls-9" d="M867.4,856c9.3,12,15,27.8,16.3,44.7-14.3-13.2-28.7-26.4-43-39.6-3.8-3.5-7.7-7.2-9-12.7-1.2-5.1.2-11,2.3-16.3,2.2-5.3,5.1-10.2,7.5-15.4,6.3-14.1,7.9-30.3,4.3-43.9-1.6-6-4.2-11.9-3.1-18.5,1.2-7.3,6.7-13.6,12.7-17s12.6-4.5,19-5.3c2.5-.3,5.3-.6,7,1.2,1.9,2.1,1.4,5.9.7,9.2-4.9,23.6-11.1,47.2-18.7,70.3-2.6,8-5.5,16.3-5.5,24.4,0,8.2,3.4,16.3,10.1,18.3"/>
          <polygon class="cls-9" points="850.7 740.4 856.1 746.2 799.4 814.1 794 808.4 850.7 740.4"/>
          <path class="cls-9" d="M838,757.7c-2.5,1.8-3.4,5.3-2.2,7.9s4.2,3.2,6.7,1.3,3.4-5.3,2.2-7.9-4.2-3.2-6.7-1.3Z"/>
        </g>
        <g>
          <path class="cls-9" d="M937.8,1049.3c14.6,4.4,28.4,13.8,39.2,26.8-19.3-2.4-38.7-4.7-58-7.1-5.1-.6-10.5-1.4-14.7-5.1-3.9-3.5-6.3-9-7.6-14.6-1.3-5.6-1.8-11.3-2.9-16.9-3.1-15.2-11.2-29.2-22.1-38.2-4.8-3.9-10.3-7.2-13.3-13.2-3.3-6.6-2.5-15,.4-21.3s7.7-11,12.3-15.4c1.8-1.7,4-3.6,6.4-3,2.8.6,4.5,4,5.9,7.1,9.8,22.1,18.4,44.8,25.8,68,2.5,8.1,5,16.4,9.8,23.1,4.7,6.7,12.3,11.3,18.9,9"/>
          <polygon class="cls-9" points="857 965.2 864.7 966.7 858.2 1055 850.4 1053.5 857 965.2"/>
          <path class="cls-9" d="M856.7,986.6c-.9,2.9.3,6.3,2.8,7.7,2.5,1.3,5.3,0,6.2-2.8.9-2.9-.3-6.3-2.8-7.7-2.5-1.3-5.3,0-6.2,2.8Z"/>
        </g>
        <path class="cls-9" d="M985.2,422.9c3.5-10.1,7.1-20.1,10.8-30,2.3-6.3,5.6-13.3,11.7-14.2,2.9-.5,6,.6,8.8-.2,3.3-.9,5.6-4.3,8.8-5.8,3.9-1.8,8.6-.6,12.8.9,12.5,4.5,24.5,11.8,34.9,21.3-3.2,5.7-10.1,7.3-16.3,6.7-6.2-.6-12.4-3-18.7-3.5-8.2-.7-16.4,1.9-22.8,7.2-4.7,3.9-8.3,9.2-13,13s-11.2,6-16.8,3"/>
        <path class="cls-9" d="M987.2,421.7c2.8,1.9,6.2,1.2,8.9-.3s5-3.8,7.7-5.2c4.1-2.1,8.9-2.1,13.5-2.6,7.6-.8,14.9-3,21.6-6.6,4.4-2.3,8.8-5.2,13.7-6,3.5-.6,7.1,0,10.6-.3s7.2-1.4,9.2-4.6c.4,13.1-6.1,25-15.1,32.4-9,7.5-20.3,11-31.6,13.1-9.4,1.7-20,2.1-28.3-4.3-4.9-3.8-8.4-9.6-11.6-15.3"/>
        <path class="cls-10" d="M1005.6,388.5c.7-2.6,3.7-2.9,5.9-2.7,2.8.2,5.7,1,8.5,0,2.2-.8,4-2.4,5.8-4,1.8-1.6,4.2-3.6,6.8-3,1.8.4,2.5-2.3.7-2.7-3-.7-5.7.6-8,2.5-2.1,1.7-4,4.1-6.8,4.8-3.2.8-6.6-.7-9.8-.2-2.6.4-5.1,2-5.7,4.7-.4,1.7,2.2,2.5,2.7.7h0Z"/>
        <path class="cls-10" d="M1017.7,421.6c10.8,1.2,21.9-2.9,29.3-10.8,1.2-1.3-.7-3.3-2-2-7,7.4-17.2,11.1-27.3,10-1.8-.2-1.8,2.6,0,2.8h0Z"/>
        <path class="cls-9" d="M1225.3,117.4c-1.9,7.6-5.2,14.2-8.1,21.1-2.9,6.9-5.4,14.5-5.6,22.6-.2,8.8,2.7,17.6,7.5,22.6,4.8,5,11.5,5.9,16.8,2s8.9-12.5,8.8-21.2c0-8.5-3.3-16.2-6.8-23.1-4-8.1-8.4-15.7-12.7-23.3"/>
        <path class="cls-9" d="M1252.4,102.9l-27.2,21.6-34.5-52.9-105.9,92.5-18.7-3,113.1-112.8c7.2-8.4,17.7-8.9,23.5-1l49.7,55.6h0Z"/>
        <g>
          <path class="cls-9" d="M1224.6,141.1c-5.3,5.2-8.2,12.8-7.7,20.3"/>
          <path class="cls-10" d="M1223.8,140.3c-5.5,5.5-8.5,13.3-8.1,21.1,0,1.4,2.3,1.4,2.2,0-.4-7.2,2.3-14.4,7.4-19.5,1-1-.6-2.6-1.6-1.6h0Z"/>
        </g>
        <ellipse class="cls-10" cx="1222" cy="175.9" rx="3.4" ry="6.2" transform="translate(75.8 634.6) rotate(-30)"/>
      </g>
      <g>
        <path class="cls-9" d="M713.4,252.1c.8,2.1,2.3,4.5,4.6,6.3,3.4,2.6,6.7,2.4,8.7-.2,1.9-2.4,1.5-4.8-.9-8.8-3-4.7-3.9-8.9-1.1-12.5,3.1-4,8.7-4.4,13.7-.5,2.6,2,4,4.1,4.7,5.6l-3,2c-.5-1.1-1.6-3.2-3.9-5-3.5-2.7-6.4-1.7-7.8,0-1.9,2.4-1.2,4.8,1.3,8.9,3,5,3.6,8.8.7,12.6-3.1,3.9-8.6,5.1-14.7.4-2.5-1.9-4.6-4.7-5.3-6.7l3-2.1Z"/>
        <path class="cls-9" d="M749,245.7c1.8,1,4.1,2.4,6.7,4.4,3.3,2.5,5.1,5.1,5.5,7.7.5,2.3-.1,4.8-1.9,7.1-1.8,2.3-3.9,3.6-6.2,3.9-3.2.5-6.8-.8-10-3.3-1-.8-1.9-1.5-2.5-2.3l-7.9,10.2-3.3-2.6,19.6-25.3ZM742.8,260.6c.6.8,1.4,1.5,2.5,2.4,4,3.1,7.9,3,10.6-.5,2.6-3.4,1.5-6.9-2.1-9.7-1.4-1.1-2.6-1.9-3.3-2.1l-7.7,9.9Z"/>
        <path class="cls-9" d="M781.6,290.5c-6.8,8.8-15.8,9.3-22.3,4.3-6.8-5.2-7.4-14.1-1.4-21.9,6.3-8.1,15.5-9.5,22.3-4.2,7,5.4,7.3,14.3,1.5,21.8ZM761.4,275.5c-4.2,5.5-5.1,12.7.1,16.7,5.2,4.1,11.9,1.5,16.4-4.3,3.9-5.1,5.4-12.5,0-16.7-5.5-4.2-12.1-1.3-16.5,4.3Z"/>
        <path class="cls-9" d="M798.9,283.9l-19.8,25.6-3.3-2.6,19.8-25.6,3.3,2.6Z"/>
        <path class="cls-9" d="M804.6,288.3l3.3,2.6-17.7,22.8,10.9,8.5-2.1,2.8-14.2-11,19.8-25.6Z"/>
        <path class="cls-9" d="M825.2,326.1l-9.9-7.7-7.1,9.2,11.1,8.6-2.1,2.8-14.4-11.2,19.8-25.6,13.8,10.7-2.1,2.8-10.5-8.1-6.3,8.1,9.9,7.7-2.1,2.7Z"/>
        <path class="cls-9" d="M840.9,317c2.2,1.3,4.8,2.9,7.4,4.9,4.7,3.7,7.3,7.4,7.9,11.2.7,3.9-.3,7.8-3.5,12-3.2,4.2-7.2,6.6-11.4,7.1-4.2.5-9.2-1.2-14.2-5.1-2.4-1.8-4.2-3.5-5.8-5l19.5-25.1ZM826.7,342.2c.7.8,1.9,1.8,3.2,2.8,7.1,5.5,13.9,4.5,19.3-2.4,4.7-6,4.3-12.5-2.7-17.9-1.7-1.3-3.1-2.2-4.1-2.7l-15.7,20.2Z"/>
      </g>
    </g>
  </g>
</svg>