<?xml version="1.0" encoding="UTF-8"?>
<svg xmlns="http://www.w3.org/2000/svg" version="1.1" xmlns:xlink="http://www.w3.org/1999/xlink" viewBox="0 0 1920 1080">
  <defs>
    <style>
      .cls-1 {
        opacity: .2;
      }

      .cls-2 {
        fill: none;
      }

      .cls-3 {
        fill: #161417;
      }

      .cls-4 {
        clip-path: url(#clippath);
      }
    </style>
    <clipPath id="clippath">
      <rect class="cls-2" x="619.9" y="13.3" width="593" height="1035"/>
    </clipPath>
  </defs>
  <!-- Generator: Adobe Illustrator 28.7.6, SVG Export Plug-In . SVG Version: 1.2.0 Build 188)  -->
  <g>
    <g id="Layer_1">
      <g class="cls-1">
        <g class="cls-4">
          <g>
            <g>
              <g>
                <path class="cls-3" d="M1067.5,360.9c-16.1-36.1-36.7-75.3-24.9-113.1,7.5-24.1,28.5-43.3,53-49.2,24.5-5.9,51.7,1.5,70.2,18.6,18.7,17.2,27.9,42.1,36.5,66,15.4,42.8,30.8,85.7,46.2,128.5,13.8,38.3,27.7,78.1,24.1,118.6-3,34.2-18.4,66-33.5,96.8-29.9,61-60.2,122.1-81.9,186.5-21.8,64.4-34.9,132.5-29.6,200.3.4,5.2.6,11.3-3.5,14.6-3.8,3-9.4,2-13.7-.2-16.4-8.4-21.7-29.1-23.1-47.5-1.4-18.4-1.2-38.3-12.2-53.1-8.2-11-22.4-18.8-24.4-32.4-2.3-15.8,13-27.7,24.3-39,33.7-33.7,39.8-85.7,41.1-133.3,1.4-47.7.8-98.4,26-138.9,10.9-17.6,27-34.3,26.5-55-.4-14.7-9.2-27.6-17.7-39.6-33.1-46.7-50.3-82-83.5-128.7"/>
                <path class="cls-3" d="M1181.4,224.9c-26.7-13-54.3-26.1-83.9-28.4-29.6-2.3-62.2,8.9-77.1,34.6-17.7,30.6-4,71.8,22.3,95.4,26.3,23.6,61.9,33.5,96.4,40.9,54.6,11.7,110.1,19.1,165.8,22-58.7,24.5-108.8,69-140,124.4-10.1,17.8-18.3,36.8-30.3,53.4-12,16.6-28.8,31-49,34.6-16.2,2.9-36.5.2-45.5,14-9.8,15,3.7,34.1,4.4,52,.8,18.5-12.2,34.4-19.9,51.3s-6.8,42.1,10.7,48.1c39.2-73.4,99.8-133.3,165.5-184.5,65.6-51.2,136.9-94.6,204.6-143,19.3-13.8,40.5-33.4,35.8-56.6-3.6-18-21.4-28.9-37.6-37.7-77.4-42-154.8-84.1-232.2-126.1"/>
                <g>
                  <path class="cls-3" d="M1040.1,761c12.3,16,19.9,36.8,21.6,59.2-19-17.5-38-35-57-52.5-5-4.6-10.2-9.6-11.9-16.9-1.6-6.8.2-14.6,3.1-21.6,2.9-7,6.8-13.5,9.9-20.5,8.4-18.7,10.5-40.1,5.7-58.3-2.1-7.9-5.5-15.8-4.1-24.5,1.5-9.7,8.8-18.1,16.9-22.6,8-4.5,16.7-5.9,25.2-7.1,3.3-.5,7-.8,9.2,1.7,2.5,2.8,1.8,7.8.9,12.2-6.5,31.3-14.8,62.5-24.8,93.2-3.5,10.7-7.2,21.6-7.3,32.4,0,10.8,4.5,21.7,13.4,24.3"/>
                  <polygon class="cls-3" points="1017.9 607.8 1025.1 615.4 949.9 705.5 942.7 697.9 1017.9 607.8"/>
                  <path class="cls-3" d="M1001.1,630.6c-3.2,2.4-4.6,7.1-2.9,10.4,1.6,3.4,5.6,4.2,8.8,1.8,3.2-2.4,4.6-7.1,2.9-10.4s-5.6-4.2-8.8-1.8Z"/>
                </g>
                <g>
                  <path class="cls-3" d="M1133.4,1017.3c19.3,5.8,37.6,18.3,52,35.6-25.6-3.1-51.3-6.3-76.9-9.4-6.7-.8-13.9-1.8-19.5-6.8-5.2-4.6-8.3-12-10.1-19.4-1.8-7.4-2.4-15-3.9-22.4-4.1-20.1-14.8-38.8-29.3-50.7-6.3-5.2-13.7-9.6-17.6-17.5-4.4-8.7-3.3-19.8.5-28.2,3.9-8.4,10.2-14.5,16.4-20.4,2.4-2.3,5.3-4.7,8.5-4,3.7.8,6,5.3,7.8,9.4,13,29.2,24.4,59.4,34.2,90.2,3.4,10.7,6.7,21.8,12.9,30.6,6.2,8.8,16.3,15,25,11.9"/>
                  <polygon class="cls-3" points="1026.2 905.8 1036.5 907.8 1027.8 1024.8 1017.5 1022.8 1026.2 905.8"/>
                  <path class="cls-3" d="M1025.8,934.1c-1.2,3.8.4,8.4,3.7,10.2s7,.1,8.2-3.7c1.2-3.8-.4-8.4-3.7-10.2s-7-.1-8.2,3.7Z"/>
                </g>
              </g>
              <polygon class="cls-3" points="1394.1 -141 1113.9 -178.2 1030.7 394 1333.7 265.1 1394.1 -141"/>
              <polygon class="cls-3" points="1031.3 397.5 781.8 201.9 823.9 -130.6 1215.7 -218.2 1031.3 397.5"/>
              <polygon class="cls-3" points="1254.9 -136.3 823.9 -136.3 981.6 -281.6 992.9 -366.8 1012.1 -373.7 1226.6 -209.6 1254.9 -136.3"/>
              <polygon class="cls-3" points="1340.1 -268.7 1114.8 -180.2 1395 -143 1395 -143 1340.1 -268.7"/>
              <path class="cls-3" d="M1093.7-97.2"/>
              <line class="cls-3" x1="1390.5" y1="-114.3" x2="1110.4" y2="-151.5"/>
              <g>
                <polygon class="cls-3" points="1377.3 -62.7 1075 63.2 1031.4 390.9 1333.7 265.1 1377.3 -62.7"/>
                <polygon class="cls-3" points="1074.9 64.1 823.9 -136.3 776.4 190.7 1031.3 391.8 1074.9 64.1"/>
                <path class="cls-3" d="M1131.7-261.7"/>
              </g>
              <path class="cls-3" d="M1254.9-166.5"/>
              <path class="cls-3" d="M1226.6-222.5"/>
              <path class="cls-3" d="M1377.8-66.4"/>
              <path class="cls-3" d="M1254.9-166.5"/>
              <polygon class="cls-3" points="1339.2 -266.7 1113.9 -178.2 1394.1 -141 1394.1 -141 1339.2 -266.7"/>
              <path class="cls-3" d="M1122.3-262.9"/>
              <line class="cls-3" x1="1377.3" y1="-62.7" x2="1390.5" y2="-114.3"/>
              <polyline class="cls-3" points="823.9 -136.3 981.6 -281.6 992.9 -366.8 1192.1 -216"/>
              <polyline class="cls-3" points="980.1 -281.8 1113.9 -178.2 1075.5 59.4 1390.5 -114.3 1394.1 -141"/>
              <polyline class="cls-3" points="991.4 -367 1012.1 -373.7 1211.2 -223.5"/>
              <text/>
              <path class="cls-3" d="M1074.9,64.1"/>
              <g>
                <path class="cls-3" d="M1202,113.7l-4,1.4-1.7-4.8,1.4-.5c1.7,1.1,3.1,2.4,4.3,3.9Z"/>
                <path class="cls-3" d="M1202,113.7l-4,1.4-1.7-4.8,1.4-.5c1.7,1.1,3.1,2.4,4.3,3.9Z"/>
                <path class="cls-3" d="M1373.8,37.6l3.1,8.9-14.4,5c0,.5.1,1,.2,1.5,1.3,15.4-3.3,32-14.2,46-11,14-28.5,25.1-47.3,28.5-18.8,3.5-38.4-1.3-49-12.9-4-4.4-6.7-10.1-6.6-15.9l-43.4,15c-1.2-1.5-2.6-2.8-4.3-3.9l48.7-16.9c.1-.4.3-.7.4-1.1,2.5-6.1,8.2-11.2,14-15.7,23.6-18.2,53.1-30.8,83.1-35.5l-.4,1.5c3.4-3.8,10.5-3.7,14.1-.9.5.4,1,.9,1.4,1.4l14.7-5.1Z"/>
                <path class="cls-3" d="M1198,115.1l4-1.4c3.7,4.5,5.1,10.6,4.7,16.6-1.1,15.7-13.7,31.5-30.6,40.4-16.9,8.9-37.5,11-54.8,6.8-17.3-4.2-31.2-14.5-39.6-27.4-.3-.4-.5-.9-.8-1.3l-15.4,5.3-3.1-8.9,15.7-5.4c0-.6.1-1.3.3-2,1.1-4.4,6.6-8.8,11.6-8l-1.3-1c26.5-14.9,57.5-23.2,87.3-23.4,7.4,0,15,.4,20.7,3.7.3.2.7.4,1,.6l-1.4.5,1.7,4.8Z"/>
              </g>
              <path class="cls-3" d="M1187.1,217.4c4.7-13.3,9.5-26.6,14.4-39.8,3.1-8.3,7.4-17.6,15.5-18.9,3.8-.6,7.9.8,11.6-.2,4.4-1.2,7.4-5.7,11.6-7.6,5.2-2.4,11.4-.9,17,1.2,16.6,6,32.4,15.7,46.2,28.3-4.3,7.5-13.4,9.7-21.6,8.9-8.3-.8-16.5-3.9-24.8-4.6-10.9-1-21.8,2.5-30.2,9.5-6.2,5.2-11,12.2-17.2,17.2-6.2,5.1-14.8,8-22.3,4"/>
              <path class="cls-3" d="M1189.7,215.9c3.7,2.5,8.3,1.6,11.8-.4,3.6-2,6.6-5,10.2-6.9,5.5-2.8,11.8-2.8,17.9-3.5,10-1.1,19.7-4,28.7-8.7,5.9-3.1,11.6-6.9,18.2-8,4.6-.8,9.4,0,14-.4,4.7-.3,9.5-1.9,12.1-6,.5,17.4-8.1,33.1-20,43-11.9,9.9-26.9,14.6-41.9,17.3-12.5,2.2-26.5,2.8-37.5-5.8-6.5-5.1-11.1-12.8-15.3-20.3"/>
              <line class="cls-3" x1="1118.9" y1="124.3" x2="1108.2" y2="161"/>
              <line class="cls-3" x1="1136.6" y1="120.2" x2="1125.9" y2="156.9"/>
              <line class="cls-3" x1="1154.1" y1="115.1" x2="1143.4" y2="151.8"/>
              <path class="cls-3" d="M1212.3,171.4c.5-2.4,2.7-4.1,5.1-4.7,2.4-.6,4.9-.2,7.3,0s4.9.6,7.3,0c3.4-1,6-3.8,8.7-6.1,2.7-2.3,6.2-4.4,9.7-3.5"/>
              <path class="cls-3" d="M1230.2,213.9c13.7,1.6,28.1-3.6,37.6-13.8"/>
              <line class="cls-3" x1="1281.1" y1="73.2" x2="1270.4" y2="109.8"/>
              <line class="cls-3" x1="1299.7" y1="64.8" x2="1288.9" y2="101.5"/>
              <line class="cls-3" x1="1319.8" y1="54.8" x2="1309.1" y2="91.5"/>
              <path class="cls-3" d="M1514.6-218.2c-2.6,10.1-6.9,18.9-10.8,28-3.8,9.1-7.2,19.2-7.5,30-.2,11.6,3.6,23.4,10,30,6.4,6.6,15.2,7.8,22.2,2.6,7-5.2,11.8-16.5,11.6-28.2-.1-11.3-4.4-21.5-9-30.6-5.3-10.7-11.1-20.8-16.9-30.9"/>
              <path class="cls-3" d="M1550.5-237.4l-36.1,28.7-45.7-70.2-140.4,122.6-24.7-3.9,149.9-149.5c9.5-11.1,23.5-11.8,31.1-1.4l65.9,73.7Z"/>
              <path class="cls-3" d="M1513.6-186.9c-7,6.9-10.9,17-10.3,26.9"/>
              <ellipse class="cls-3" cx="1510.2" cy="-140.7" rx="4.5" ry="8.2" transform="translate(272.7 736.3) rotate(-30)"/>
              <path class="cls-3" d="M1222.1,245.5c-19.2-10.4-38.3-20.8-57.5-31.2"/>
            </g>
            <path class="cls-3" d="M1060.3,337.4c18.3,7.8,54.4,27.3,73.9,31.5,54.6,11.7,110.1,19.1,165.8,22-58.7,24.5-108.8,69-140,124.4-10.1,17.8-18.3,36.8-30.3,53.4-12,16.6-28.8,31-49,34.6-16.2,2.9-36.5.2-45.5,14-9.8,15,3.7,34.1,4.4,52,.8,18.5-12.2,34.4-19.9,51.3-7.7,16.9-6.8,42.1,10.7,48.1,39.2-73.4,99.8-133.3,165.5-184.5,65.6-51.2,136.9-94.6,204.6-143,19.3-13.8,40.5-33.4,35.8-56.6-3.6-18-21.4-28.9-37.6-37.7-58.3-31.6-116.5-63.3-174.8-94.9"/>
            <polygon class="cls-3" points="1371.3 -60.2 1093.7 55.4 1057.8 366.2 1322.1 251.3 1371.3 -60.2"/>
            <polygon class="cls-3" points="1033.7 383 787.3 187.4 834.1 -130.1 1073 57.3 1033.7 383"/>
            <polygon class="cls-3" points="1018.9 -354.1 1001.6 -347.9 991.3 -271.1 1111.5 -182.7 1199.5 -215.8 1018.9 -354.1"/>
            <polygon class="cls-3" points="1074.9 46.3 839.8 -136.3 984.2 -263.4 1108.2 -174 1074.9 46.3"/>
            <polygon class="cls-3" points="1378.6 -113.3 1095.4 46.3 1125.9 -170.3 1383.9 -135.3 1378.6 -113.3"/>
            <polygon class="cls-3" points="1375.9 -72.7 1284.4 -32.7 1158.4 20.6 1380.6 -106.7 1375.9 -72.7"/>
            <g>
              <g>
                <path class="cls-3" d="M1208.5,93l-4,1.4-1.6-4.7,1.4-.5c1.7,1.1,3.1,2.4,4.3,3.8Z"/>
                <path class="cls-3" d="M1208.5,93l-4,1.4-1.6-4.7,1.4-.5c1.7,1.1,3.1,2.4,4.3,3.8Z"/>
                <path class="cls-3" d="M1378.1,17.9l3,8.8-14.2,4.9c0,.5.1,1,.2,1.5,1.3,15.2-3.2,31.6-14.1,45.4-10.8,13.8-28.1,24.8-46.7,28.2-18.6,3.4-38-1.2-48.4-12.7-4-4.4-6.6-10-6.5-15.7l-42.9,14.8c-1.2-1.4-2.6-2.7-4.3-3.8l48.1-16.6c.1-.3.2-.7.4-1.1,2.5-6,8.1-11,13.9-15.5,23.3-18,52.4-30.4,82.1-35.1l-.4,1.5c3.4-3.7,10.3-3.6,13.9-.9.5.4,1,.9,1.4,1.3l14.5-5Z"/>
                <path class="cls-3" d="M1204.5,94.4l4-1.4c3.7,4.5,5,10.5,4.6,16.4-1.1,15.5-13.5,31.1-30.2,39.9-16.7,8.8-37.1,10.9-54.1,6.7-17-4.2-30.8-14.3-39.1-27-.3-.4-.5-.8-.8-1.3l-15.2,5.3-3-8.8,15.5-5.4c0-.6.1-1.3.3-1.9,1.1-4.4,6.5-8.7,11.5-7.9l-1.3-1c26.2-14.7,56.8-22.9,86.2-23.1,7.3,0,14.8.4,20.5,3.6.3.2.7.4,1,.6l-1.4.5,1.6,4.7Z"/>
              </g>
              <line class="cls-3" x1="1138.1" y1="79.2" x2="1121.2" y2="137.2"/>
              <line class="cls-3" x1="1156.6" y1="72.6" x2="1138.9" y2="133.1"/>
              <line class="cls-3" x1="1173.6" y1="69.1" x2="1156.4" y2="128"/>
              <line class="cls-3" x1="1302.2" y1="21.7" x2="1283.4" y2="86.1"/>
              <line class="cls-3" x1="1320.3" y1="14.8" x2="1302" y2="77.7"/>
              <line class="cls-3" x1="1339.3" y1="9.1" x2="1322.1" y2="67.8"/>
            </g>
            <g>
              <path class="cls-3" d="M1041.4,757c12.3,15.9,19.8,36.7,21.5,59-18.9-17.4-37.9-34.9-56.8-52.3-5-4.6-10.2-9.5-11.8-16.8-1.6-6.8.2-14.5,3.1-21.5,2.9-7,6.8-13.5,9.9-20.4,8.4-18.7,10.5-40,5.7-58-2.1-7.9-5.5-15.7-4.1-24.4,1.5-9.6,8.8-18,16.8-22.5,8-4.5,16.7-5.9,25.1-7.1,3.3-.5,7-.8,9.2,1.7,2.5,2.8,1.8,7.8.9,12.1-6.5,31.2-14.7,62.3-24.7,92.9-3.5,10.6-7.2,21.5-7.3,32.3,0,10.8,4.5,21.6,13.3,24.2"/>
              <polygon class="cls-3" points="1019.3 604.4 1026.5 612 951.6 701.7 944.4 694.1 1019.3 604.4"/>
              <path class="cls-3" d="M1002.6,627.1c-3.2,2.4-4.5,7-2.9,10.4,1.6,3.4,5.6,4.2,8.8,1.8,3.2-2.4,4.5-7,2.9-10.4-1.6-3.4-5.6-4.2-8.8-1.8Z"/>
            </g>
            <g>
              <path class="cls-3" d="M1134.4,1012.4c19.3,5.8,37.5,18.2,51.8,35.4-25.5-3.1-51.1-6.3-76.6-9.4-6.7-.8-13.8-1.8-19.4-6.8-5.2-4.6-8.3-11.9-10-19.3-1.8-7.3-2.4-14.9-3.9-22.3-4-20.1-14.8-38.6-29.2-50.5-6.3-5.2-13.6-9.6-17.5-17.4-4.4-8.7-3.3-19.8.5-28.1s10.1-14.5,16.3-20.4c2.4-2.3,5.2-4.7,8.4-4,3.7.8,6,5.3,7.8,9.3,13,29.1,24.3,59.2,34,89.9,3.4,10.7,6.7,21.7,12.9,30.5,6.2,8.8,16.2,14.9,24.9,11.9"/>
              <polygon class="cls-3" points="1027.6 901.2 1037.8 903.3 1029.2 1019.9 1018.9 1017.8 1027.6 901.2"/>
              <path class="cls-3" d="M1027.2,929.5c-1.2,3.8.4,8.4,3.7,10.2,3.3,1.8,6.9.1,8.2-3.7,1.2-3.8-.4-8.4-3.7-10.2-3.3-1.8-6.9-.1-8.2,3.7Z"/>
            </g>
            <path class="cls-3" d="M1197,184.9c4.6-13.3,9.4-26.5,14.3-39.7,3.1-8.3,7.3-17.6,15.4-18.8,3.8-.6,7.9.8,11.6-.2,4.4-1.2,7.4-5.6,11.6-7.6,5.1-2.4,11.3-.9,17,1.2,16.6,6,32.3,15.6,46,28.2-4.3,7.5-13.3,9.7-21.6,8.9-8.3-.8-16.4-3.9-24.7-4.6-10.9-1-21.7,2.4-30.1,9.5-6.1,5.2-10.9,12.1-17.1,17.1s-14.8,8-22.2,3.9"/>
            <path class="cls-3" d="M1199.6,183.4c3.7,2.4,8.2,1.6,11.8-.4,3.6-2,6.6-5,10.2-6.9,5.4-2.8,11.8-2.8,17.9-3.5,10-1.1,19.7-4,28.6-8.7,5.9-3.1,11.6-6.9,18.1-8,4.6-.7,9.3,0,14-.4,4.6-.3,9.5-1.9,12.1-6,.5,17.3-8.1,33-20,42.8-11.9,9.9-26.8,14.6-41.7,17.3-12.4,2.2-26.4,2.8-37.4-5.7-6.5-5.1-11.1-12.7-15.3-20.3"/>
            <path class="cls-3" d="M1222.1,139c.5-2.4,2.7-4.1,5.1-4.7,2.4-.6,4.8-.2,7.2,0s4.9.6,7.2,0c3.4-1,6-3.7,8.7-6.1,2.7-2.3,6.2-4.4,9.6-3.5"/>
            <path class="cls-3" d="M1239.9,181.4c13.7,1.6,28-3.6,37.4-13.7"/>
            <path class="cls-3" d="M1514.2-218.6c-2.5,10.1-6.9,18.8-10.7,27.9-3.8,9.1-7.2,19.1-7.4,29.9-.2,11.6,3.6,23.3,9.9,29.9,6.4,6.6,15.2,7.8,22.1,2.6,7-5.1,11.7-16.5,11.6-28.1-.1-11.3-4.4-21.4-8.9-30.5-5.3-10.6-11.1-20.7-16.8-30.8"/>
            <path class="cls-3" d="M1549.9-237.7l-36,28.6-45.5-69.9-139.9,122.1-24.6-3.9,149.4-148.9c9.5-11.1,23.4-11.7,31-1.4l65.7,73.4Z"/>
            <path class="cls-3" d="M1513.2-187.4c-7,6.9-10.8,17-10.2,26.8"/>
            <ellipse class="cls-3" cx="1509.8" cy="-141.4" rx="4.5" ry="8.2" transform="translate(273 736) rotate(-30)"/>
          </g>
        </g>
      </g>
    </g>
  </g>
</svg>