<?xml version="1.0" encoding="UTF-8"?><svg id="Layer_1" xmlns="http://www.w3.org/2000/svg" viewBox="0 0 1200 462.3"><path d="M304.3,160.6c2.4-10,3.7-20.4,3.7-31.1C308,58,251.4,0,181.5,0S55,58,55,129.5s1.2,20.3,3.4,29.9C24.3,171.5,0,202.1,0,238s40.5,84,90.5,84,13.1-.7,19.4-1.9l-49.2-48.7,10.6-10.7,55,54.5c15.2-6.1,28.2-15.9,37.8-28.2v-143h30v128c3.2,9.4,7.9,18,13.8,25.6l76.2-80.3,10.9,10.3-76.9,81c14.6,13.3,33.7,21.3,54.5,21.3,46.1,0,83.5-39.4,83.5-88s-21.4-68.2-51.7-81.4Z"/><path d="M207.8,297.6l-13.8,14.6v-40.2c-1.5-4.3-2.7-8.7-3.5-13.3-3,.2-6,.3-9,.3s-2.2,0-3.3,0c-2.8,10.2-7.7,19.7-14.2,28.1v65.6l-37.8-37.4c-5.2,2.1-10.7,3.7-16.4,4.9l54.1,53.7v86.3h30v-126l24-25.3c-3.7-3.4-7.1-7.1-10.2-11Z"/><path d="M424.2,330.2V71.5h-92.4V18.8h247.4v52.7h-92.2v258.7h-62.9Z"/><path d="M652.5,330.2h-59.7V104.6h55.4v32.1c9.5-15.2,18-25.1,25.6-29.9,7.6-4.8,16.2-7.2,25.8-7.2s26.7,3.8,39.3,11.3l-18.5,52c-10.1-6.5-19.4-9.8-28-9.8s-15.4,2.3-21.2,6.9c-5.8,4.6-10.4,12.9-13.7,25-3.3,12-5,37.2-5,75.6v69.7Z"/><path d="M895.3,258.4l59.5,10c-7.6,21.8-19.7,38.4-36.2,49.8-16.5,11.4-37.1,17.1-61.9,17.1-39.2,0-68.3-12.8-87.1-38.4-14.9-20.5-22.3-46.4-22.3-77.7s9.8-66.7,29.3-87.8c19.5-21.2,44.2-31.8,74.1-31.8s60,11.1,79.4,33.2c19.4,22.2,28.7,56.1,27.8,101.8h-149.5c.4,17.7,5.2,31.5,14.4,41.3,9.2,9.8,20.7,14.8,34.4,14.8s17.2-2.5,23.6-7.6,11.2-13.3,14.4-24.6ZM898.7,198.1c-.4-17.3-4.9-30.4-13.4-39.4-8.5-9-18.8-13.5-31-13.5s-23.8,4.7-32.3,14.2c-8.5,9.5-12.7,22.4-12.5,38.7h89.2Z"/><path d="M1137.3,258.4l59.5,10c-7.6,21.8-19.7,38.4-36.2,49.8-16.5,11.4-37.1,17.1-61.9,17.1-39.2,0-68.3-12.8-87.1-38.4-14.9-20.5-22.3-46.4-22.3-77.7s9.8-66.7,29.3-87.8c19.5-21.2,44.2-31.8,74.1-31.8s60,11.1,79.4,33.2c19.4,22.2,28.7,56.1,27.8,101.8h-149.5c.4,17.7,5.2,31.5,14.4,41.3,9.2,9.8,20.7,14.8,34.4,14.8s17.2-2.5,23.6-7.6,11.2-13.3,14.4-24.6ZM1140.7,198.1c-.4-17.3-4.9-30.4-13.4-39.4-8.5-9-18.8-13.5-31-13.5s-23.8,4.7-32.3,14.2c-8.5,9.5-12.7,22.4-12.5,38.7h89.2Z"/><path d="M424.7,435.6v-91.1h29.5c11.2,0,18.5.5,21.9,1.4,5.2,1.4,9.6,4.3,13.1,8.9,3.5,4.6,5.3,10.5,5.3,17.7s-1,10.3-3,14.1c-2,3.8-4.6,6.8-7.7,9-3.1,2.2-6.3,3.6-9.5,4.3-4.4.9-10.7,1.3-19.1,1.3h-12v34.4h-18.4ZM443.1,359.9v25.8h10.1c7.2,0,12.1-.5,14.5-1.4,2.4-1,4.4-2.4,5.7-4.5,1.4-2,2.1-4.4,2.1-7.1s-1-6-2.9-8.2c-1.9-2.2-4.4-3.5-7.4-4-2.2-.4-6.6-.6-13.2-.6h-8.9Z"/><path d="M526.9,344.5v33.5c5.6-6.6,12.4-9.9,20.2-9.9s7.6.7,10.9,2.2c3.2,1.5,5.7,3.4,7.3,5.7,1.6,2.3,2.8,4.9,3.4,7.7.6,2.8.9,7.2.9,13.1v38.7h-17.5v-34.8c0-6.9-.3-11.3-1-13.2-.7-1.9-1.8-3.3-3.5-4.4-1.7-1.1-3.8-1.6-6.3-1.6s-5.5.7-7.8,2.1c-2.3,1.4-3.9,3.5-5,6.4-1.1,2.8-1.6,7-1.6,12.6v33h-17.5v-91.1h17.5Z"/><path d="M583.1,401.7c0-5.8,1.4-11.4,4.3-16.8,2.9-5.4,6.9-9.6,12.1-12.4,5.2-2.9,11.1-4.3,17.5-4.3,10,0,18.2,3.2,24.5,9.7,6.4,6.5,9.6,14.7,9.6,24.6s-3.2,18.3-9.7,24.8c-6.4,6.6-14.5,9.8-24.3,9.8s-11.8-1.4-17.3-4.1c-5.5-2.7-9.7-6.7-12.5-12-2.9-5.3-4.3-11.7-4.3-19.3ZM601,402.6c0,6.5,1.6,11.6,4.7,15,3.1,3.5,6.9,5.2,11.5,5.2s8.4-1.7,11.5-5.2c3.1-3.5,4.6-8.5,4.6-15.2s-1.5-11.4-4.6-14.9c-3.1-3.5-6.9-5.2-11.5-5.2s-8.4,1.7-11.5,5.2c-3.1,3.5-4.7,8.5-4.7,15Z"/><path d="M695.1,369.6v13.9h-11.9v26.6c0,5.4.1,8.5.3,9.4.2.9.7,1.6,1.6,2.2s1.8.9,3,.9,4-.6,7-1.7l1.5,13.5c-4.1,1.7-8.7,2.6-13.8,2.6s-6-.5-8.5-1.6c-2.5-1.1-4.4-2.4-5.6-4.1-1.2-1.7-2-3.9-2.5-6.8-.4-2-.6-6.1-.6-12.3v-28.8h-8v-13.9h8v-13.1l17.5-10.2v23.3h11.9Z"/><path d="M703.2,401.7c0-5.8,1.4-11.4,4.3-16.8,2.9-5.4,6.9-9.6,12.1-12.4s11.1-4.3,17.5-4.3c10,0,18.2,3.2,24.5,9.7,6.4,6.5,9.6,14.7,9.6,24.6s-3.2,18.3-9.7,24.8c-6.4,6.6-14.5,9.8-24.3,9.8s-11.8-1.4-17.3-4.1c-5.5-2.7-9.7-6.7-12.5-12-2.9-5.3-4.3-11.7-4.3-19.3ZM721.1,402.6c0,6.5,1.6,11.6,4.7,15,3.1,3.5,6.9,5.2,11.5,5.2s8.4-1.7,11.5-5.2c3.1-3.5,4.6-8.5,4.6-15.2s-1.5-11.4-4.6-14.9c-3.1-3.5-6.9-5.2-11.5-5.2s-8.4,1.7-11.5,5.2c-3.1,3.5-4.7,8.5-4.7,15Z"/><path d="M783.4,439.9l19.9,2.4c.3,2.3,1.1,3.9,2.3,4.8,1.7,1.2,4.3,1.9,7.8,1.9s8-.7,10.2-2c1.5-.9,2.7-2.4,3.5-4.4.5-1.4.8-4.1.8-8v-9.6c-5.2,7.1-11.8,10.7-19.8,10.7s-15.9-3.7-21.1-11.2c-4.1-5.9-6.1-13.3-6.1-22.1s2.7-19.5,8-25.3c5.3-5.8,11.9-8.8,19.8-8.8s14.9,3.6,20.2,10.7v-9.3h16.3v59.2c0,7.8-.6,13.6-1.9,17.5-1.3,3.9-3.1,6.9-5.4,9.1-2.3,2.2-5.4,3.9-9.3,5.2-3.9,1.2-8.8,1.9-14.7,1.9-11.2,0-19.1-1.9-23.8-5.7s-7-8.7-7-14.6,0-1.3,0-2.1ZM799,401.2c0,7,1.4,12.1,4.1,15.4,2.7,3.3,6.1,4.9,10,4.9s7.9-1.7,10.8-5c2.9-3.3,4.4-8.3,4.4-14.8s-1.4-11.9-4.2-15.2c-2.8-3.3-6.4-5-10.7-5s-7.6,1.6-10.3,4.9c-2.7,3.3-4.1,8.2-4.1,14.9Z"/><path d="M879.4,435.6h-17.5v-66h16.2v9.4c2.8-4.4,5.3-7.4,7.5-8.8,2.2-1.4,4.7-2.1,7.5-2.1s7.8,1.1,11.5,3.3l-5.4,15.2c-2.9-1.9-5.7-2.9-8.2-2.9s-4.5.7-6.2,2c-1.7,1.3-3,3.8-4,7.3-1,3.5-1.5,10.9-1.5,22.1v20.4Z"/><path d="M925.2,389.7l-15.8-2.9c1.8-6.4,4.8-11.1,9.2-14.2,4.3-3.1,10.8-4.6,19.4-4.6s13.6.9,17.4,2.8c3.8,1.8,6.5,4.2,8,7,1.6,2.8,2.3,8,2.3,15.6l-.2,20.4c0,5.8.3,10.1.8,12.8.6,2.8,1.6,5.7,3.1,8.9h-17.3c-.5-1.2-1-2.9-1.7-5.2-.3-1-.5-1.7-.6-2-3,2.9-6.2,5.1-9.6,6.5s-7,2.2-10.9,2.2c-6.8,0-12.1-1.8-16.1-5.5-3.9-3.7-5.9-8.3-5.9-14s.9-7.1,2.7-10c1.8-2.9,4.3-5.2,7.5-6.7,3.2-1.6,7.8-2.9,13.9-4.1,8.2-1.5,13.8-3,17-4.3v-1.7c0-3.4-.8-5.7-2.5-7.2-1.7-1.4-4.8-2.1-9.4-2.1s-5.5.6-7.3,1.8c-1.7,1.2-3.1,3.4-4.2,6.4ZM948.6,403.9c-2.2.7-5.8,1.6-10.6,2.7-4.8,1-8,2.1-9.5,3-2.3,1.6-3.4,3.7-3.4,6.2s.9,4.6,2.7,6.3c1.8,1.8,4.1,2.7,7,2.7s6.1-1,9-3.1c2.1-1.6,3.5-3.5,4.2-5.8.5-1.5.7-4.3.7-8.5v-3.5Z"/><path d="M982.5,369.6h16.3v9.7c2.1-3.3,5-6,8.6-8.1,3.6-2.1,7.6-3.1,12-3.1,7.7,0,14.2,3,19.5,9,5.3,6,8,14.4,8,25.1s-2.7,19.6-8.1,25.7c-5.4,6.1-11.9,9.2-19.6,9.2s-6.9-.7-9.9-2.2-6.1-3.9-9.3-7.5v33.2h-17.5v-91.1ZM999.7,401.5c0,7.4,1.5,12.9,4.4,16.4,2.9,3.5,6.5,5.3,10.7,5.3s7.4-1.6,10.1-4.9c2.7-3.3,4-8.6,4-16s-1.4-12.1-4.2-15.4c-2.8-3.4-6.2-5-10.3-5s-7.8,1.6-10.6,4.9c-2.8,3.3-4.2,8.2-4.2,14.6Z"/><path d="M1078.1,344.5v33.5c5.6-6.6,12.4-9.9,20.2-9.9s7.6.7,10.9,2.2,5.7,3.4,7.3,5.7c1.6,2.3,2.8,4.9,3.4,7.7.6,2.8.9,7.2.9,13.1v38.7h-17.5v-34.8c0-6.9-.3-11.3-1-13.2-.7-1.9-1.8-3.3-3.5-4.4-1.7-1.1-3.8-1.6-6.3-1.6s-5.5.7-7.8,2.1c-2.3,1.4-3.9,3.5-5,6.4-1.1,2.8-1.6,7-1.6,12.6v33h-17.5v-91.1h17.5Z"/><path d="M1130.1,369.6h18.6l15.8,46.8,15.4-46.8h18.1l-23.3,63.5-4.2,11.5c-1.5,3.9-3,6.8-4.4,8.8s-3,3.7-4.8,4.9c-1.8,1.3-4,2.2-6.6,3-2.6.7-5.6,1.1-8.9,1.1s-6.6-.4-9.9-1.1l-1.6-13.7c2.7.5,5.2.8,7.4.8,4.1,0,7.1-1.2,9-3.6,1.9-2.4,3.4-5.4,4.5-9.1l-25.1-66.2Z"/></svg>