<svg version="1.1" viewBox="0.0 0.0 960.8687664041995 374.7821522309711" fill="none" stroke="none" stroke-linecap="square" stroke-miterlimit="10" xmlns:xlink="http://www.w3.org/1999/xlink" xmlns="http://www.w3.org/2000/svg"><clipPath id="p.0"><path d="m0 0l960.8688 0l0 374.78217l-960.8688 0l0 -374.78217z" clip-rule="nonzero"/></clipPath><g clip-path="url(#p.0)"><path fill="#000000" fill-opacity="0.0" d="m0 0l960.8688 0l0 374.78217l-960.8688 0z" fill-rule="evenodd"/><path fill="#ffffff" d="m20.868767 182.60367l0 0c0 -36.015915 29.394093 -65.21259 65.65354 -65.21259l0 0c17.412407 0 34.11164 6.870598 46.424072 19.100334c12.312424 12.229736 19.229477 28.816803 19.229477 46.11226l0 0c0 36.01593 -29.394096 65.2126 -65.65355 65.2126l0 0c-36.25945 0 -65.65354 -29.19667 -65.65354 -65.2126z" fill-rule="evenodd"/><path stroke="#ffffff" stroke-width="1.0" stroke-linejoin="round" stroke-linecap="butt" d="m20.868767 182.60367l0 0c0 -36.015915 29.394093 -65.21259 65.65354 -65.21259l0 0c17.412407 0 34.11164 6.870598 46.424072 19.100334c12.312424 12.229736 19.229477 28.816803 19.229477 46.11226l0 0c0 36.01593 -29.394096 65.2126 -65.65355 65.2126l0 0c-36.25945 0 -65.65354 -29.19667 -65.65354 -65.2126z" fill-rule="evenodd"/><path fill="#ffffff" d="m152.17586 182.60367l0 0c0 -36.015915 29.394089 -65.21259 65.653534 -65.21259l0 0c17.412415 0 34.11165 6.870598 46.424057 19.100334c12.312439 12.229736 19.229492 28.816803 19.229492 46.11226l0 0c0 36.01593 -29.394089 65.2126 -65.65355 65.2126l0 0c-36.259445 0 -65.653534 -29.19667 -65.653534 -65.2126z" fill-rule="evenodd"/><path stroke="#ffffff" stroke-width="1.0" stroke-linejoin="round" stroke-linecap="butt" d="m152.17586 182.60367l0 0c0 -36.015915 29.394089 -65.21259 65.653534 -65.21259l0 0c17.412415 0 34.11165 6.870598 46.424057 19.100334c12.312439 12.229736 19.229492 28.816803 19.229492 46.11226l0 0c0 36.01593 -29.394089 65.2126 -65.65355 65.2126l0 0c-36.259445 0 -65.653534 -29.19667 -65.653534 -65.2126z" fill-rule="evenodd"/><path fill="#ffffff" d="m52.0 101.727036l0 0c0 -52.34094 42.282654 -94.77165 94.44095 -94.77165l0 0c25.047287 0 49.06871 9.984841 66.77983 27.757977c17.711105 17.773132 27.661118 41.87867 27.661118 67.01368l0 0c0 52.340942 -42.282654 94.77165 -94.44095 94.77165l0 0c-52.158295 0 -94.44095 -42.43071 -94.44095 -94.77165z" fill-rule="evenodd"/><path stroke="#ffffff" stroke-width="1.0" stroke-linejoin="round" stroke-linecap="butt" d="m52.0 101.727036l0 0c0 -52.34094 42.282654 -94.77165 94.44095 -94.77165l0 0c25.047287 0 49.06871 9.984841 66.77983 27.757977c17.711105 17.773132 27.661118 41.87867 27.661118 67.01368l0 0c0 52.340942 -42.282654 94.77165 -94.44095 94.77165l0 0c-52.158295 0 -94.44095 -42.43071 -94.44095 -94.77165z" fill-rule="evenodd"/><path fill="#000000" fill-opacity="0.0" d="m150.4357 346.0866l-2.6141815 -199.1181" fill-rule="evenodd"/><path stroke="#ffffff" stroke-width="24.0" stroke-linejoin="round" stroke-linecap="butt" d="m150.4357 346.0866l-2.6141815 -199.1181" fill-rule="evenodd"/><path fill="#000000" fill-opacity="0.0" d="m154.78215 293.9134l-79.11811 -79.11812" fill-rule="evenodd"/><path stroke="#ffffff" stroke-width="12.0" stroke-linejoin="round" stroke-linecap="butt" d="m154.78215 293.9134l-79.11811 -79.11812" fill-rule="evenodd"/><path fill="#000000" fill-opacity="0.0" d="m144.34908 261.74014l69.574814 -69.57478" fill-rule="evenodd"/><path stroke="#ffffff" stroke-width="12.0" stroke-linejoin="round" stroke-linecap="butt" d="m144.34908 261.74014l69.574814 -69.57478" fill-rule="evenodd"/><path fill="#000000" fill-opacity="0.0" d="m246.9685 -77.314964l886.9606 0l0 423.40158l-886.9606 0z" fill-rule="evenodd"/><path fill="#ffffff" d="m342.39038 251.68504l0 -210.45312l-78.609375 0l0 -28.15625l189.125 0l0 28.15625l-78.9375 0l0 210.45312l-31.578125 0zm126.459045 0l0 -172.84375l26.375 0l0 26.203125q10.09375 -18.390625 18.625 -24.25q8.546875 -5.859375 18.8125 -5.859375q14.8125 0 30.109375 9.4375l-10.09375 27.171875q-10.75 -6.34375 -21.484375 -6.34375q-9.609375 0 -17.265625 5.78125q-7.640625 5.78125 -10.890625 16.03125q-4.890625 15.625008 -4.890625 34.171883l0 90.5l-29.296875 0zm229.6571 -55.65625l30.265625 3.734375q-7.15625 26.53125 -26.53125 41.1875q-19.359375 14.640625 -49.46875 14.640625q-37.921875 0 -60.140625 -23.359375q-22.21875 -23.359375 -22.21875 -65.5q0 -43.625008 22.453125 -67.70313q22.46875 -24.09375 58.28125 -24.09375q34.671875 0 56.640625 23.59375q21.96875 23.59375 21.96875 66.40626q0 2.609375 -0.15625 7.8125l-128.90625 0q1.625 28.484375 16.109375 43.625q14.484375 15.125 36.125 15.125q16.125 0 27.515625 -8.453125q11.390625 -8.46875 18.0625 -27.015625zm-96.1875 -47.375l96.515625 0q-1.953125 -21.796883 -11.0625 -32.703133q-14.0 -16.9375 -36.296875 -16.9375q-20.1875 0 -33.9375 13.515625q-13.75 13.5 -15.21875 36.125008zm281.5688 47.375l30.265625 3.734375q-7.15625 26.53125 -26.53125 41.1875q-19.359375 14.640625 -49.46875 14.640625q-37.921875 0 -60.140625 -23.359375q-22.218811 -23.359375 -22.218811 -65.5q0 -43.625008 22.453186 -67.70313q22.46875 -24.09375 58.28125 -24.09375q34.671875 0 56.640625 23.59375q21.96875 23.59375 21.96875 66.40626q0 2.609375 -0.15625 7.8125l-128.90625 0q1.625 28.484375 16.109375 43.625q14.484375 15.125 36.125 15.125q16.125 0 27.515625 -8.453125q11.390625 -8.46875 18.0625 -27.015625zm-96.1875 -47.375l96.515625 0q-1.953125 -21.796883 -11.0625 -32.703133q-14.0 -16.9375 -36.296875 -16.9375q-20.1875 0 -33.9375 13.515625q-13.75 13.5 -15.21875 36.125008z" fill-rule="nonzero"/><path fill="#000000" fill-opacity="0.0" d="m313.9134 223.38058l651.30707 0l0 148.6614l-651.30707 0z" fill-rule="evenodd"/><path fill="#ffffff" d="m331.14777 334.78058l0 -76.34375l28.796875 0q7.59375 0 11.609375 0.71875q5.625 0.9375 9.421875 3.578125q3.8125 2.625 6.125 7.375q2.3125 4.734375 2.3125 10.40625q0 9.734375 -6.203125 16.484375q-6.1875 6.75 -22.390625 6.75l-19.578125 0l0 31.03125l-10.09375 0zm10.09375 -40.046875l19.734375 0q9.796875 0 13.90625 -3.640625q4.125 -3.65625 4.125 -10.265625q0 -4.796875 -2.421875 -8.203125q-2.421875 -3.40625 -6.390625 -4.5q-2.546875 -0.6875 -9.421875 -0.6875l-19.53125 0l0 27.296875zm59.84201 40.046875l0 -76.34375l9.375 0l0 27.390625q6.5625 -7.609375 16.5625 -7.609375q6.140625 0 10.671875 2.421875q4.53125 2.421875 6.484375 6.703125q1.953125 4.265625 1.953125 12.390625l0 35.046875l-9.375 0l0 -35.046875q0 -7.03125 -3.046875 -10.234375q-3.046875 -3.203125 -8.625 -3.203125q-4.15625 0 -7.828125 2.171875q-3.671875 2.15625 -5.234375 5.859375q-1.5625 3.6875 -1.5625 10.203125l0 30.25l-9.375 0zm55.832733 -27.65625q0 -15.359375 8.53125 -22.75q7.140625 -6.15625 17.390625 -6.15625q11.40625 0 18.640625 7.484375q7.25 7.46875 7.25 20.640625q0 10.671875 -3.203125 16.796875q-3.203125 6.125 -9.328125 9.515625q-6.109375 3.375 -13.359375 3.375q-11.609375 0 -18.765625 -7.4375q-7.15625 -7.453125 -7.15625 -21.46875zm9.625 0q0 10.625 4.640625 15.921875q4.640625 5.28125 11.65625 5.28125q6.984375 0 11.609375 -5.3125q4.640625 -5.3125 4.640625 -16.203125q0 -10.25 -4.65625 -15.53125q-4.65625 -5.296875 -11.59375 -5.296875q-7.015625 0 -11.65625 5.265625q-4.640625 5.25 -4.640625 15.875zm73.64526 19.265625l1.34375 8.28125q-3.953125 0.84375 -7.078125 0.84375q-5.09375 0 -7.90625 -1.609375q-2.8125 -1.625 -3.96875 -4.25q-1.140625 -2.640625 -1.140625 -11.078125l0 -31.8125l-6.875 0l0 -7.296875l6.875 0l0 -13.6875l9.328125 -5.625l0 19.3125l9.421875 0l0 7.296875l-9.421875 0l0 32.34375q0 4.0 0.484375 5.15625q0.5 1.140625 1.609375 1.828125q1.125 0.671875 3.21875 0.671875q1.5625 0 4.109375 -0.375zm5.6793823 -19.265625q0 -15.359375 8.53125 -22.75q7.140625 -6.15625 17.390625 -6.15625q11.40625 0 18.640625 7.484375q7.25 7.46875 7.25 20.640625q0 10.671875 -3.203125 16.796875q-3.203125 6.125 -9.328125 9.515625q-6.109375 3.375 -13.359375 3.375q-11.609375 0 -18.765625 -7.4375q-7.15625 -7.453125 -7.15625 -21.46875zm9.625 0q0 10.625 4.640625 15.921875q4.640625 5.28125 11.65625 5.28125q6.984375 0 11.609375 -5.3125q4.640625 -5.3125 4.640625 -16.203125q0 -10.25 -4.65625 -15.53125q-4.65625 -5.296875 -11.59375 -5.296875q-7.015625 0 -11.65625 5.265625q-4.640625 5.25 -4.640625 15.875zm51.457764 32.234375l9.109375 1.359375q0.578125 4.21875 3.1875 6.140625q3.484375 2.609375 9.515625 2.609375q6.515625 0 10.046875 -2.609375q3.546875 -2.59375 4.796875 -7.28125q0.734375 -2.875 0.6875 -12.03125q-6.15625 7.234375 -15.3125 7.234375q-11.40625 0 -17.65625 -8.21875q-6.25 -8.234375 -6.25 -19.75q0 -7.90625 2.859375 -14.59375q2.875 -6.703125 8.3125 -10.34375q5.4375 -3.65625 12.78125 -3.65625q9.796875 0 16.140625 7.921875l0 -6.671875l8.65625 0l0 47.8125q0 12.921875 -2.640625 18.3125q-2.625 5.390625 -8.328125 8.515625q-5.703125 3.125 -14.03125 3.125q-9.890625 0 -15.984375 -4.453125q-6.09375 -4.453125 -5.890625 -13.421875zm7.765625 -33.21875q0 10.875 4.3125 15.875q4.328125 5.0 10.828125 5.0q6.46875 0 10.84375 -4.96875q4.375 -4.96875 4.375 -15.59375q0 -10.15625 -4.515625 -15.3125q-4.5 -5.15625 -10.859375 -5.15625q-6.234375 0 -10.609375 5.078125q-4.375 5.078125 -4.375 15.078125zm53.16089 28.640625l0 -55.3125l8.4375 0l0 8.390625q3.234375 -5.890625 5.96875 -7.765625q2.734375 -1.875 6.015625 -1.875q4.734375 0 9.625 3.03125l-3.21875 8.6875q-3.4375 -2.03125 -6.875 -2.03125q-3.078125 0 -5.53125 1.859375q-2.4375 1.84375 -3.484375 5.125q-1.5625 5.0 -1.5625 10.9375l0 28.953125l-9.375 0zm71.72046 -6.828125q-5.21875 4.4375 -10.03125 6.265625q-4.8125 1.8125 -10.328125 1.8125q-9.125 0 -14.015625 -4.453125q-4.890625 -4.453125 -4.890625 -11.375q0 -4.0625 1.84375 -7.421875q1.84375 -3.359375 4.84375 -5.390625q3.0 -2.03125 6.75 -3.078125q2.75 -0.71875 8.328125 -1.40625q11.34375 -1.34375 16.71875 -3.21875q0.046875 -1.9375 0.046875 -2.453125q0 -5.734375 -2.65625 -8.078125q-3.59375 -3.171875 -10.671875 -3.171875q-6.609375 0 -9.765625 2.328125q-3.15625 2.3125 -4.65625 8.1875l-9.171875 -1.25q1.25 -5.875 4.109375 -9.5q2.875 -3.625 8.28125 -5.578125q5.421875 -1.953125 12.546875 -1.953125q7.09375 0 11.515625 1.671875q4.421875 1.671875 6.5 4.203125q2.09375 2.515625 2.921875 6.375q0.46875 2.390625 0.46875 8.640625l0 12.5q0 13.0625 0.59375 16.53125q0.609375 3.46875 2.375 6.640625l-9.78125 0q-1.46875 -2.921875 -1.875 -6.828125zm-0.78125 -20.921875q-5.109375 2.078125 -15.3125 3.53125q-5.78125 0.828125 -8.1875 1.875q-2.390625 1.046875 -3.6875 3.046875q-1.296875 2.0 -1.296875 4.453125q0 3.75 2.828125 6.25q2.84375 2.5 8.3125 2.5q5.40625 0 9.625 -2.359375q4.21875 -2.375 6.203125 -6.5q1.515625 -3.171875 1.515625 -9.375l0 -3.421875zm24.004639 48.953125l0 -76.515625l8.546875 0l0 7.1875q3.015625 -4.21875 6.8125 -6.328125q3.8125 -2.109375 9.21875 -2.109375q7.078125 0 12.5 3.65625q5.421875 3.640625 8.171875 10.28125q2.765625 6.640625 2.765625 14.5625q0 8.484375 -3.046875 15.28125q-3.046875 6.796875 -8.859375 10.421875q-5.796875 3.609375 -12.203125 3.609375q-4.6875 0 -8.421875 -1.96875q-3.71875 -1.984375 -6.109375 -5.015625l0 26.9375l-9.375 0zm8.484375 -48.546875q0 10.671875 4.328125 15.78125q4.328125 5.109375 10.46875 5.109375q6.25 0 10.703125 -5.28125q4.453125 -5.296875 4.453125 -16.390625q0 -10.5625 -4.359375 -15.828125q-4.34375 -5.265625 -10.390625 -5.265625q-5.984375 0 -10.59375 5.609375q-4.609375 5.59375 -4.609375 16.265625zm50.832764 27.34375l0 -76.34375l9.375 0l0 27.390625q6.5625 -7.609375 16.5625 -7.609375q6.140625 0 10.671875 2.421875q4.53125 2.421875 6.484375 6.703125q1.953125 4.265625 1.953125 12.390625l0 35.046875l-9.375 0l0 -35.046875q0 -7.03125 -3.046875 -10.234375q-3.046875 -3.203125 -8.625 -3.203125q-4.15625 0 -7.828125 2.171875q-3.671875 2.15625 -5.234375 5.859375q-1.5625 3.6875 -1.5625 10.203125l0 30.25l-9.375 0zm58.895264 21.296875l-1.03125 -8.796875q3.0625 0.828125 5.359375 0.828125q3.125 0 5.0 -1.046875q1.875 -1.03125 3.078125 -2.90625q0.875 -1.40625 2.859375 -6.984375q0.265625 -0.78125 0.828125 -2.28125l-20.984375 -55.421875l10.109375 0l11.5 32.03125q2.25 6.09375 4.015625 12.8125q1.609375 -6.453125 3.84375 -12.609375l11.828125 -32.234375l9.375 0l-21.046875 56.25q-3.375 9.109375 -5.25 12.546875q-2.5 4.640625 -5.734375 6.796875q-3.21875 2.171875 -7.703125 2.171875q-2.703125 0 -6.046875 -1.15625z" fill-rule="nonzero"/></g></svg>
